<mxfile host="Electron" modified="2024-10-30T12:56:47.920Z" agent="Mozilla/5.0 (Macintosh; Intel Mac OS X 10_15_7) AppleWebKit/537.36 (KHTML, like Gecko) draw.io/21.2.1 Chrome/112.0.5615.87 Electron/24.1.2 Safari/537.36" etag="Fyq5VCCkYFxa368iZYYw" version="21.2.1" type="device" pages="2">
  <diagram name="Standalone" id="lbBV_vS6QNyX3s9Q5mWh">
    <mxGraphModel dx="2092" dy="1114" grid="1" gridSize="10" guides="1" tooltips="1" connect="1" arrows="1" fold="1" page="1" pageScale="1" pageWidth="850" pageHeight="1100" math="0" shadow="0">
      <root>
        <mxCell id="0" />
        <mxCell id="1" parent="0" />
        <mxCell id="P64oohx6x9y642xr5XJO-27" value="Model B&lt;br&gt;(&lt;i&gt;cabinAtmo.modelB&lt;/i&gt;)" style="rounded=1;whiteSpace=wrap;html=1;dashed=1;arcSize=8;verticalAlign=top;" vertex="1" parent="1">
          <mxGeometry x="80" y="150" width="770" height="500" as="geometry" />
        </mxCell>
        <mxCell id="P64oohx6x9y642xr5XJO-26" value="Model A&lt;br&gt;(&lt;i&gt;cabinAtmo.modelA&lt;/i&gt;)" style="rounded=1;whiteSpace=wrap;html=1;dashed=1;arcSize=8;verticalAlign=top;" vertex="1" parent="1">
          <mxGeometry x="-640" y="150" width="570" height="500" as="geometry" />
        </mxCell>
        <mxCell id="3hZ8DWkQW12oq6lxrK5x-16" value="" style="endArrow=none;html=1;rounded=1;exitX=0.5;exitY=1;exitDx=0;exitDy=0;entryX=0.5;entryY=0;entryDx=0;entryDy=0;strokeColor=default;edgeStyle=orthogonalEdgeStyle;" parent="1" source="3hZ8DWkQW12oq6lxrK5x-3" target="3hZ8DWkQW12oq6lxrK5x-2" edge="1">
          <mxGeometry width="50" height="50" relative="1" as="geometry">
            <mxPoint x="418" y="500" as="sourcePoint" />
            <mxPoint x="300" y="500" as="targetPoint" />
          </mxGeometry>
        </mxCell>
        <mxCell id="3hZ8DWkQW12oq6lxrK5x-14" value="" style="endArrow=none;html=1;rounded=1;exitX=0;exitY=0.25;exitDx=0;exitDy=0;entryX=1;entryY=0.25;entryDx=0;entryDy=0;strokeColor=default;edgeStyle=orthogonalEdgeStyle;" parent="1" source="3hZ8DWkQW12oq6lxrK5x-1" target="3hZ8DWkQW12oq6lxrK5x-2" edge="1">
          <mxGeometry width="50" height="50" relative="1" as="geometry">
            <mxPoint x="290" y="290" as="sourcePoint" />
            <mxPoint x="530" y="450" as="targetPoint" />
          </mxGeometry>
        </mxCell>
        <mxCell id="3hZ8DWkQW12oq6lxrK5x-13" value="" style="endArrow=none;html=1;rounded=1;exitX=1;exitY=0.5;exitDx=0;exitDy=0;entryX=0.5;entryY=0;entryDx=0;entryDy=0;strokeColor=default;edgeStyle=orthogonalEdgeStyle;" parent="1" source="3hZ8DWkQW12oq6lxrK5x-3" target="3hZ8DWkQW12oq6lxrK5x-1" edge="1">
          <mxGeometry width="50" height="50" relative="1" as="geometry">
            <mxPoint x="450" y="180" as="sourcePoint" />
            <mxPoint x="500" y="130" as="targetPoint" />
          </mxGeometry>
        </mxCell>
        <mxCell id="3hZ8DWkQW12oq6lxrK5x-1" value="Cabin Volume&amp;nbsp;&lt;br&gt;(&lt;i&gt;cabinAtmo.modelB.mCabin&lt;/i&gt;)" style="rounded=1;whiteSpace=wrap;html=1;fillColor=#dae8fc;strokeColor=#6c8ebf;" parent="1" vertex="1">
          <mxGeometry x="400" y="440" width="440" height="200" as="geometry" />
        </mxCell>
        <mxCell id="3hZ8DWkQW12oq6lxrK5x-2" value="Vestibule&lt;br&gt;Volume&lt;br&gt;(&lt;i&gt;cabinAtmo.&lt;br&gt;modelB.&lt;br&gt;mVestibule&lt;/i&gt;)" style="rounded=1;whiteSpace=wrap;html=1;fillColor=#dae8fc;strokeColor=#6c8ebf;" parent="1" vertex="1">
          <mxGeometry x="200" y="440" width="80" height="200" as="geometry" />
        </mxCell>
        <mxCell id="3hZ8DWkQW12oq6lxrK5x-3" value="IMV Duct&lt;br&gt;Volume&lt;br&gt;(&lt;i&gt;cabinAtmo.&lt;br&gt;modelB.&lt;br&gt;mImvDuct&lt;/i&gt;)" style="rounded=1;whiteSpace=wrap;html=1;fillColor=#dae8fc;strokeColor=#6c8ebf;" parent="1" vertex="1">
          <mxGeometry x="200" y="240" width="80" height="80" as="geometry" />
        </mxCell>
        <object label="MPEV" About="Valve" Ports="0=in, 1=out" c00.maxConductivity="0.0" c01.expansionScaleFactor="0.0" c02.thermalLength="0.0" c03.thermalDiameter="0.0" c04.surfaceRoughness="0.0" i00.malfBlockageFlag="false" i01.malfBlockageValue="0.0" i02.position="0.0" i03.malfLeakThruFlag="false" i04.malfLeakThruValue="0.0" i05.wallTemperature="0.0" id="3hZ8DWkQW12oq6lxrK5x-4">
          <gunns type="Link" subtype="aspects/fluid/conductor/GunnsFluidValve" numPorts="2" reqPorts="0,1" />
          <mxCell style="verticalLabelPosition=bottom;align=center;fillColor=#FFFFFF;html=1;verticalAlign=top;strokeColor=#000000;strokeWidth=1;shape=stencil(pVTLboMwEPwaXyOCUyXXiD5uuVTN3SFuWdWske08+vddvCSKm1CBkLjsjGdn1iwIWfhKNVrkmfKNLoOQzyLPj8qB2hmCc2IqBhcZl6hqzcjbx2bzTshWmWN31gdnv/UJ9qFTAVbaQWD2xNgqdpIvIlsT2D6yKC0i+YNFnzA3PPVWgCGJAMidGzKpddCO4S7qOal+umr2FOvXMT72EAYYzQcYyYKQvmll8Wmd/nL2gPuH8RrVXuwdcaFr276Ia5w/g/eOfZEbwBv5MpUvJurHyuej7Utjvf7/SHpBqcPUhAP0qf1yov9qsD4uXc/u0M6BMfzhPlzWu5WMKP83IvAL);fontSize=12;fontColor=#000000;" parent="1" vertex="1">
            <mxGeometry x="300" y="470" width="80" height="40" as="geometry" />
          </mxCell>
        </object>
        <object label="Grill Valve" About="Valve" Ports="0=in, 1=out" c00.maxConductivity="0.0" c01.expansionScaleFactor="0.0" c02.thermalLength="0.0" c03.thermalDiameter="0.0" c04.surfaceRoughness="0.0" i00.malfBlockageFlag="false" i01.malfBlockageValue="0.0" i02.position="0.0" i03.malfLeakThruFlag="false" i04.malfLeakThruValue="0.0" i05.wallTemperature="0.0" id="3hZ8DWkQW12oq6lxrK5x-8">
          <gunns type="Link" subtype="aspects/fluid/conductor/GunnsFluidValve" numPorts="2" reqPorts="0,1" />
          <mxCell style="verticalLabelPosition=middle;align=left;fillColor=#FFFFFF;html=1;verticalAlign=middle;strokeColor=#000000;strokeWidth=1;shape=stencil(pVTLboMwEPwaXyOCUyXXiD5uuVTN3SFuWdWske08+vddvCSKm1CBkLjsjGdn1iwIWfhKNVrkmfKNLoOQzyLPj8qB2hmCc2IqBhcZl6hqzcjbx2bzTshWmWN31gdnv/UJ9qFTAVbaQWD2xNgqdpIvIlsT2D6yKC0i+YNFnzA3PPVWgCGJAMidGzKpddCO4S7qOal+umr2FOvXMT72EAYYzQcYyYKQvmll8Wmd/nL2gPuH8RrVXuwdcaFr276Ia5w/g/eOfZEbwBv5MpUvJurHyuej7Utjvf7/SHpBqcPUhAP0qf1yov9qsD4uXc/u0M6BMfzhPlzWu5WMKP83IvAL);fontSize=12;fontColor=#000000;direction=south;labelPosition=right;" parent="1" vertex="1">
            <mxGeometry x="220" y="340" width="40" height="80" as="geometry" />
          </mxCell>
        </object>
        <object label="IMV valve" About="Valve" Ports="0=in, 1=out" c00.maxConductivity="0.0" c01.expansionScaleFactor="0.0" c02.thermalLength="0.0" c03.thermalDiameter="0.0" c04.surfaceRoughness="0.0" i00.malfBlockageFlag="false" i01.malfBlockageValue="0.0" i02.position="0.0" i03.malfLeakThruFlag="false" i04.malfLeakThruValue="0.0" i05.wallTemperature="0.0" id="3hZ8DWkQW12oq6lxrK5x-9">
          <gunns type="Link" subtype="aspects/fluid/conductor/GunnsFluidValve" numPorts="2" reqPorts="0,1" />
          <mxCell style="verticalLabelPosition=bottom;align=center;fillColor=#FFFFFF;html=1;verticalAlign=top;strokeColor=#000000;strokeWidth=1;shape=stencil(pVTLboMwEPwaXyOCUyXXiD5uuVTN3SFuWdWske08+vddvCSKm1CBkLjsjGdn1iwIWfhKNVrkmfKNLoOQzyLPj8qB2hmCc2IqBhcZl6hqzcjbx2bzTshWmWN31gdnv/UJ9qFTAVbaQWD2xNgqdpIvIlsT2D6yKC0i+YNFnzA3PPVWgCGJAMidGzKpddCO4S7qOal+umr2FOvXMT72EAYYzQcYyYKQvmll8Wmd/nL2gPuH8RrVXuwdcaFr276Ia5w/g/eOfZEbwBv5MpUvJurHyuej7Utjvf7/SHpBqcPUhAP0qf1yov9qsD4uXc/u0M6BMfzhPlzWu5WMKP83IvAL);fontSize=12;fontColor=#000000;" parent="1" vertex="1">
            <mxGeometry x="300" y="260" width="80" height="40" as="geometry" />
          </mxCell>
        </object>
        <object label="IMV Fan" About="Gas Fan" Ports="0=in, 1=out" c00.maxConductivity="0.0" c01.expansionScaleFactor="0.0" c02.referenceDensity="0.0" c03.referenceSpeed="0.0" c04.referenceCoeff0="0.0" c05.referenceCoeff1="0.0" c06.referenceCoeff2="0.0" c07.referenceCoeff3="0.0" c08.referenceCoeff4="0.0" c09.referenceCoeff5="0.0" c10.bestEfficiency="0.0" c11.referenceQBep="0.0" c12.filterGain="0.5" c13.driveRatio="1.0" c14.thermalLength="0.0" c15.thermalDiameter="0.0" c16.surfaceRoughness="0.0" c17.checkValveActive="false" i00.malfBlockageFlag="false" i01.malfBlockageValue="0.0" i02.sourcePressure="0.0" i03.motorSpeed="0.0" i04.wallTemperature="0.0" id="3hZ8DWkQW12oq6lxrK5x-10">
          <gunns type="Link" subtype="aspects/fluid/potential/GunnsGasFan" numPorts="2" reqPorts="0,1" />
          <mxCell style="verticalLabelPosition=bottom;align=center;html=1;verticalAlign=top;shape=stencil(7VbLbsIwEPyaHINCzKvHKoXeuKCq5yUsYGHsyHYJ/H0NTmisJNRBlVAlpBy8s7FnvGNrHZBEbSHDII5AZZjqgLwFcXwASWHJDBybzNaCL5ENOezRIu8f8/nCIDPgNqW0FDvM6UoXcyjfoqTaZvPqOmQaRK8GPH8kSQXnhp0KrpxMJW/WBsq1I2BuF84Mxx41SosWOo9F1Bva+FTNzrrQLO6g6Xen+fShcfdSkHaimXrQ9D1oSGKQNuNIsoR0t5Hii68axSFjNFNYP165Gzbvu01OCylJ1kLiDTVrypg9vG3FzOB8pmuJMr0XB/xRO3DPQrtJ5XSQqRkwkBsMzThcM9g4G5fFyqSMT26scsSsMq3vVK/UcwzhSFUohYazZU2lHTxAbHSv2MnvYl1jxqRH3Gs66o2f7nRw51owH7nXcvs7NBk+fMP/2J0/1frL1fEy92mOc3X85V5/bm5HBm/pSOZFd7OR1RrvKKj23ZFb39itYXxDUnsPvcitdeALal+fF+Ab);strokeColor=#000000;strokeWidth=1;fontSize=12;fontColor=#000000;fillColor=#FFFFFF;" parent="1" vertex="1">
            <mxGeometry x="420" y="260" width="40" height="40" as="geometry" />
          </mxCell>
        </object>
        <object label="&lt;i&gt;cabinAtmo.modelB.&lt;br&gt;mImvDuct.mIf&lt;/i&gt;" About="Fluid Distributed Interface" Ports="0=node" c00.isPairMaster="false" c01.useEnthalpy="false" c02.demandOption="false" c03.capacitorLink="0" i00.malfBlockageFlag="false" i01.malfBlockageValue="0.0" i02.forceDemandMode="false" i03.forceSupplyMode="false" id="3hZ8DWkQW12oq6lxrK5x-11">
          <gunns type="Link" subtype="core/GunnsFluidDistributedIf" numPorts="1" reqPorts="0" />
          <mxCell style="shape=stencil(rVRbboMwEDyNfyviTQ5QuWn/okpVD7Ahm2IF1sg4j96+jk0kHAgCpX/sjGdn1lojQDUF1iRkhk1NuRPwJqQ8odW4LT0sPVNEUGaxZKwoIh/fm82XR9YXR5ax9J+fqG081jhrDnTWO9fqNRdktYvsOWLL0BPWInsV1/6ZAJUbZp9EG24SpsP73qjZJWHadLX3qMjnSdBLUv221csq1O9zbBYTbBYTbEB55NGooLaYH36sOfJuMFyN11vtETe6MifqxEnHbsuhqW/6UnNHD7P1o/5z7Z9Mf+c+wT5ND8+lX/7v5Y/4h43qLUZAH2wTqL2xNLJm8Q0Prm5PGdD4MwnAHw==);html=1;align=center;verticalLabelPosition=top;verticalAlign=bottom;dashed=0;labelBackgroundColor=none;fillColor=#ffffff;fontSize=12;direction=east;strokeColor=#007FFF;labelPosition=center;" parent="1" vertex="1">
            <mxGeometry x="80" y="270" width="120" height="20" as="geometry" />
          </mxCell>
        </object>
        <object label="&lt;i&gt;cabinAtmo.modelB.&lt;br&gt;mVestibule.mIf&lt;/i&gt;" About="Fluid Distributed Interface" Ports="0=node" c00.isPairMaster="false" c01.useEnthalpy="false" c02.demandOption="false" c03.capacitorLink="0" i00.malfBlockageFlag="false" i01.malfBlockageValue="0.0" i02.forceDemandMode="false" i03.forceSupplyMode="false" id="3hZ8DWkQW12oq6lxrK5x-12">
          <gunns type="Link" subtype="core/GunnsFluidDistributedIf" numPorts="1" reqPorts="0" />
          <mxCell style="shape=stencil(rVRbboMwEDyNfyviTQ5QuWn/okpVD7Ahm2IF1sg4j96+jk0kHAgCpX/sjGdn1lojQDUF1iRkhk1NuRPwJqQ8odW4LT0sPVNEUGaxZKwoIh/fm82XR9YXR5ax9J+fqG081jhrDnTWO9fqNRdktYvsOWLL0BPWInsV1/6ZAJUbZp9EG24SpsP73qjZJWHadLX3qMjnSdBLUv221csq1O9zbBYTbBYTbEB55NGooLaYH36sOfJuMFyN11vtETe6MifqxEnHbsuhqW/6UnNHD7P1o/5z7Z9Mf+c+wT5ND8+lX/7v5Y/4h43qLUZAH2wTqL2xNLJm8Q0Prm5PGdD4MwnAHw==);html=1;align=center;verticalLabelPosition=bottom;verticalAlign=top;dashed=0;labelBackgroundColor=none;fillColor=#ffffff;fontSize=12;direction=east;strokeColor=#007FFF;" parent="1" vertex="1">
            <mxGeometry x="80" y="530" width="120" height="20" as="geometry" />
          </mxCell>
        </object>
        <mxCell id="3hZ8DWkQW12oq6lxrK5x-15" value="" style="endArrow=none;html=1;rounded=1;exitX=0;exitY=0.75;exitDx=0;exitDy=0;entryX=1;entryY=0.75;entryDx=0;entryDy=0;strokeColor=default;edgeStyle=orthogonalEdgeStyle;" parent="1" edge="1" target="3hZ8DWkQW12oq6lxrK5x-2" source="3hZ8DWkQW12oq6lxrK5x-1">
          <mxGeometry width="50" height="50" relative="1" as="geometry">
            <mxPoint x="398" y="600" as="sourcePoint" />
            <mxPoint x="280" y="600" as="targetPoint" />
          </mxGeometry>
        </mxCell>
        <object label="Hatch" About="Hatch" Ports="0=in, 1=out" c00.maxConductivity="0.0" c01.expansionScaleFactor="0.0" c02.thermalLength="0.0" c03.thermalDiameter="0.0" c04.surfaceRoughness="0.0" c05.length0="0.0" c06.length1="0.0" i00.malfBlockageFlag="false" i01.malfBlockageValue="0.0" i02.position="0.0" i03.malfLeakThruFlag="false" i04.malfLeakThruValue="0.0" i05.wallTemperature="0.0" id="3hZ8DWkQW12oq6lxrK5x-7">
          <gunns type="Link" subtype="aspects/fluid/conductor/GunnsFluidHatch" numPorts="2" reqPorts="0,1" />
          <mxCell style="verticalLabelPosition=bottom;align=center;fillColor=#ffffff;html=1;verticalAlign=top;strokeColor=#000000;strokeWidth=1;shape=stencil(pVXdboMgGH0abxcFa3q7uK276s3SB2CWTjIEA7R2e/ohYCYqpobEC79z/Djn8GcCS1mjFicgRbLFlUrgSwLADQmCPqmGgWZqC+apLRlqsEUOp+PxQyPvSFW1JaUS/Bt35KxcF2E1FkRZtrNYYUaCr0n6rMH+gWXFGdP6hDPpMSNej40IU54FwuzIrRZpsMLCws7q3at+XPW0M/XbFh1+VQ8IZQ8IwVIjobSwvHCBvwS/svOiPcOIfqFm69L55WBpEt5WSFSS/LpsDlyejwuh1C5q6AtMKWkl/jeUFZ6hoXSG+veRoQysiK8Lt6jfZDNioBt+w6E9sBJ5aKeEjdqzzf2+/C5Sv4jUz/xZD0/6sjzI/UXLN8rn+yh5WMTJT9LDfVx8UMTF36w/yb+ib26XwMEInSfTM7t3DGp/Dgb4Aw==);fontSize=12;fontColor=#000000;" parent="1" vertex="1">
            <mxGeometry x="310" y="570" width="60" height="40" as="geometry" />
          </mxCell>
        </object>
        <mxCell id="3hZ8DWkQW12oq6lxrK5x-26" value="Simple Cabin Atmosphere Model&lt;br&gt;(standalone config: ./S_main*.exe RUN_test/input.py)" style="text;html=1;align=center;verticalAlign=middle;resizable=0;points=[];autosize=1;strokeColor=none;fillColor=none;fontStyle=1;fontSize=20;" parent="1" vertex="1">
          <mxGeometry x="-260" y="50" width="530" height="60" as="geometry" />
        </mxCell>
        <mxCell id="P64oohx6x9y642xr5XJO-1" value="FluidDistributed2WayBus" style="text;html=1;align=center;verticalAlign=middle;resizable=0;points=[];autosize=1;strokeColor=none;fillColor=none;fontStyle=1;fontColor=#B3B3B3;" vertex="1" parent="1">
          <mxGeometry x="-80" y="390" width="170" height="30" as="geometry" />
        </mxCell>
        <mxCell id="P64oohx6x9y642xr5XJO-4" value="Lag Buffer&lt;br&gt;(cabinAtmo.lagBufferImv)" style="rounded=1;whiteSpace=wrap;html=1;dashed=1;" vertex="1" parent="1">
          <mxGeometry x="-70" y="250" width="150" height="60" as="geometry" />
        </mxCell>
        <mxCell id="P64oohx6x9y642xr5XJO-5" value="" style="endArrow=none;html=1;rounded=0;strokeColor=#B3B3B3;" edge="1" parent="1" source="3hZ8DWkQW12oq6lxrK5x-11" target="P64oohx6x9y642xr5XJO-1">
          <mxGeometry width="50" height="50" relative="1" as="geometry">
            <mxPoint x="30" y="420" as="sourcePoint" />
            <mxPoint x="80" y="370" as="targetPoint" />
          </mxGeometry>
        </mxCell>
        <mxCell id="P64oohx6x9y642xr5XJO-6" value="" style="endArrow=none;html=1;rounded=0;strokeColor=#B3B3B3;" edge="1" parent="1" source="3hZ8DWkQW12oq6lxrK5x-12" target="P64oohx6x9y642xr5XJO-1">
          <mxGeometry width="50" height="50" relative="1" as="geometry">
            <mxPoint x="149" y="300" as="sourcePoint" />
            <mxPoint x="141" y="400" as="targetPoint" />
          </mxGeometry>
        </mxCell>
        <mxCell id="P64oohx6x9y642xr5XJO-7" value="Lag Buffer&lt;br&gt;(cabinAtmo.lagBufferVest)" style="rounded=1;whiteSpace=wrap;html=1;dashed=1;" vertex="1" parent="1">
          <mxGeometry x="-70" y="510" width="150" height="60" as="geometry" />
        </mxCell>
        <mxCell id="P64oohx6x9y642xr5XJO-12" value="Cabin Volume&amp;nbsp;&lt;br&gt;(&lt;i&gt;cabinAtmo.modelA.mCabin&lt;/i&gt;)" style="rounded=1;whiteSpace=wrap;html=1;fillColor=#dae8fc;strokeColor=#6c8ebf;flipH=0;" vertex="1" parent="1">
          <mxGeometry x="-630" y="440" width="240" height="200" as="geometry" />
        </mxCell>
        <mxCell id="P64oohx6x9y642xr5XJO-13" value="Vestibule&lt;br&gt;Volume&lt;br&gt;(&lt;i&gt;cabinAtmo.&lt;br&gt;modelA.&lt;br&gt;mVestibule&lt;/i&gt;)" style="rounded=1;whiteSpace=wrap;html=1;fillColor=#dae8fc;strokeColor=#6c8ebf;flipH=0;" vertex="1" parent="1">
          <mxGeometry x="-270" y="440" width="80" height="200" as="geometry" />
        </mxCell>
        <mxCell id="P64oohx6x9y642xr5XJO-10" value="" style="endArrow=none;html=1;rounded=1;exitX=1;exitY=0.25;exitDx=0;exitDy=0;entryX=0;entryY=0.25;entryDx=0;entryDy=0;strokeColor=default;edgeStyle=orthogonalEdgeStyle;" edge="1" parent="1" source="P64oohx6x9y642xr5XJO-12" target="P64oohx6x9y642xr5XJO-13">
          <mxGeometry width="50" height="50" relative="1" as="geometry">
            <mxPoint x="-280" y="290" as="sourcePoint" />
            <mxPoint x="-520" y="450" as="targetPoint" />
          </mxGeometry>
        </mxCell>
        <mxCell id="P64oohx6x9y642xr5XJO-14" value="IMV Duct&lt;br&gt;Volume&lt;br&gt;(&lt;i&gt;cabinAtmo.&lt;br&gt;modelA.&lt;br&gt;mImvDuct&lt;/i&gt;)" style="rounded=1;whiteSpace=wrap;html=1;fillColor=#dae8fc;strokeColor=#6c8ebf;flipH=0;" vertex="1" parent="1">
          <mxGeometry x="-270" y="240" width="80" height="80" as="geometry" />
        </mxCell>
        <mxCell id="P64oohx6x9y642xr5XJO-11" value="" style="endArrow=none;html=1;rounded=1;exitX=0;exitY=0.5;exitDx=0;exitDy=0;entryX=0.5;entryY=0;entryDx=0;entryDy=0;strokeColor=default;edgeStyle=orthogonalEdgeStyle;" edge="1" parent="1" source="P64oohx6x9y642xr5XJO-14" target="P64oohx6x9y642xr5XJO-12">
          <mxGeometry width="50" height="50" relative="1" as="geometry">
            <mxPoint x="-440" y="180" as="sourcePoint" />
            <mxPoint x="-490" y="130" as="targetPoint" />
          </mxGeometry>
        </mxCell>
        <object label="MPEV" About="Valve" Ports="0=in, 1=out" c00.maxConductivity="0.0" c01.expansionScaleFactor="0.0" c02.thermalLength="0.0" c03.thermalDiameter="0.0" c04.surfaceRoughness="0.0" i00.malfBlockageFlag="false" i01.malfBlockageValue="0.0" i02.position="0.0" i03.malfLeakThruFlag="false" i04.malfLeakThruValue="0.0" i05.wallTemperature="0.0" id="P64oohx6x9y642xr5XJO-15">
          <gunns type="Link" subtype="aspects/fluid/conductor/GunnsFluidValve" numPorts="2" reqPorts="0,1" />
          <mxCell style="verticalLabelPosition=bottom;align=center;fillColor=#FFFFFF;html=1;verticalAlign=top;strokeColor=#000000;strokeWidth=1;shape=stencil(pVTLboMwEPwaXyOCUyXXiD5uuVTN3SFuWdWske08+vddvCSKm1CBkLjsjGdn1iwIWfhKNVrkmfKNLoOQzyLPj8qB2hmCc2IqBhcZl6hqzcjbx2bzTshWmWN31gdnv/UJ9qFTAVbaQWD2xNgqdpIvIlsT2D6yKC0i+YNFnzA3PPVWgCGJAMidGzKpddCO4S7qOal+umr2FOvXMT72EAYYzQcYyYKQvmll8Wmd/nL2gPuH8RrVXuwdcaFr276Ia5w/g/eOfZEbwBv5MpUvJurHyuej7Utjvf7/SHpBqcPUhAP0qf1yov9qsD4uXc/u0M6BMfzhPlzWu5WMKP83IvAL);fontSize=12;fontColor=#000000;flipH=0;" vertex="1" parent="1">
            <mxGeometry x="-370" y="470" width="80" height="40" as="geometry" />
          </mxCell>
        </object>
        <object label="IMV valve" About="Valve" Ports="0=in, 1=out" c00.maxConductivity="0.0" c01.expansionScaleFactor="0.0" c02.thermalLength="0.0" c03.thermalDiameter="0.0" c04.surfaceRoughness="0.0" i00.malfBlockageFlag="false" i01.malfBlockageValue="0.0" i02.position="0.0" i03.malfLeakThruFlag="false" i04.malfLeakThruValue="0.0" i05.wallTemperature="0.0" id="P64oohx6x9y642xr5XJO-17">
          <gunns type="Link" subtype="aspects/fluid/conductor/GunnsFluidValve" numPorts="2" reqPorts="0,1" />
          <mxCell style="verticalLabelPosition=bottom;align=center;fillColor=#FFFFFF;html=1;verticalAlign=top;strokeColor=#000000;strokeWidth=1;shape=stencil(pVTLboMwEPwaXyOCUyXXiD5uuVTN3SFuWdWske08+vddvCSKm1CBkLjsjGdn1iwIWfhKNVrkmfKNLoOQzyLPj8qB2hmCc2IqBhcZl6hqzcjbx2bzTshWmWN31gdnv/UJ9qFTAVbaQWD2xNgqdpIvIlsT2D6yKC0i+YNFnzA3PPVWgCGJAMidGzKpddCO4S7qOal+umr2FOvXMT72EAYYzQcYyYKQvmll8Wmd/nL2gPuH8RrVXuwdcaFr276Ia5w/g/eOfZEbwBv5MpUvJurHyuej7Utjvf7/SHpBqcPUhAP0qf1yov9qsD4uXc/u0M6BMfzhPlzWu5WMKP83IvAL);fontSize=12;fontColor=#000000;flipH=0;" vertex="1" parent="1">
            <mxGeometry x="-370" y="260" width="80" height="40" as="geometry" />
          </mxCell>
        </object>
        <object label="IMV Fan" About="Gas Fan" Ports="0=in, 1=out" c00.maxConductivity="0.0" c01.expansionScaleFactor="0.0" c02.referenceDensity="0.0" c03.referenceSpeed="0.0" c04.referenceCoeff0="0.0" c05.referenceCoeff1="0.0" c06.referenceCoeff2="0.0" c07.referenceCoeff3="0.0" c08.referenceCoeff4="0.0" c09.referenceCoeff5="0.0" c10.bestEfficiency="0.0" c11.referenceQBep="0.0" c12.filterGain="0.5" c13.driveRatio="1.0" c14.thermalLength="0.0" c15.thermalDiameter="0.0" c16.surfaceRoughness="0.0" c17.checkValveActive="false" i00.malfBlockageFlag="false" i01.malfBlockageValue="0.0" i02.sourcePressure="0.0" i03.motorSpeed="0.0" i04.wallTemperature="0.0" id="P64oohx6x9y642xr5XJO-18">
          <gunns type="Link" subtype="aspects/fluid/potential/GunnsGasFan" numPorts="2" reqPorts="0,1" />
          <mxCell style="verticalLabelPosition=bottom;align=center;html=1;verticalAlign=top;shape=stencil(7VbLbsIwEPyaHINCzKvHKoXeuKCq5yUsYGHsyHYJ/H0NTmisJNRBlVAlpBy8s7FnvGNrHZBEbSHDII5AZZjqgLwFcXwASWHJDBybzNaCL5ENOezRIu8f8/nCIDPgNqW0FDvM6UoXcyjfoqTaZvPqOmQaRK8GPH8kSQXnhp0KrpxMJW/WBsq1I2BuF84Mxx41SosWOo9F1Bva+FTNzrrQLO6g6Xen+fShcfdSkHaimXrQ9D1oSGKQNuNIsoR0t5Hii68axSFjNFNYP165Gzbvu01OCylJ1kLiDTVrypg9vG3FzOB8pmuJMr0XB/xRO3DPQrtJ5XSQqRkwkBsMzThcM9g4G5fFyqSMT26scsSsMq3vVK/UcwzhSFUohYazZU2lHTxAbHSv2MnvYl1jxqRH3Gs66o2f7nRw51owH7nXcvs7NBk+fMP/2J0/1frL1fEy92mOc3X85V5/bm5HBm/pSOZFd7OR1RrvKKj23ZFb39itYXxDUnsPvcitdeALal+fF+Ab);strokeColor=#000000;strokeWidth=1;fontSize=12;fontColor=#000000;fillColor=#FFFFFF;flipH=0;" vertex="1" parent="1">
            <mxGeometry x="-450" y="260" width="40" height="40" as="geometry" />
          </mxCell>
        </object>
        <object label="&lt;i&gt;cabinAtmo.modelA.&lt;br&gt;mImvDuct.mIf&lt;/i&gt;" About="Fluid Distributed Interface" Ports="0=node" c00.isPairMaster="false" c01.useEnthalpy="false" c02.demandOption="false" c03.capacitorLink="0" i00.malfBlockageFlag="false" i01.malfBlockageValue="0.0" i02.forceDemandMode="false" i03.forceSupplyMode="false" id="P64oohx6x9y642xr5XJO-19">
          <gunns type="Link" subtype="core/GunnsFluidDistributedIf" numPorts="1" reqPorts="0" />
          <mxCell style="shape=stencil(rVRbboMwEDyNfyviTQ5QuWn/okpVD7Ahm2IF1sg4j96+jk0kHAgCpX/sjGdn1lojQDUF1iRkhk1NuRPwJqQ8odW4LT0sPVNEUGaxZKwoIh/fm82XR9YXR5ax9J+fqG081jhrDnTWO9fqNRdktYvsOWLL0BPWInsV1/6ZAJUbZp9EG24SpsP73qjZJWHadLX3qMjnSdBLUv221csq1O9zbBYTbBYTbEB55NGooLaYH36sOfJuMFyN11vtETe6MifqxEnHbsuhqW/6UnNHD7P1o/5z7Z9Mf+c+wT5ND8+lX/7v5Y/4h43qLUZAH2wTqL2xNLJm8Q0Prm5PGdD4MwnAHw==);html=1;align=center;verticalLabelPosition=top;verticalAlign=bottom;dashed=0;labelBackgroundColor=none;fillColor=#ffffff;fontSize=12;direction=east;strokeColor=#007FFF;labelPosition=center;flipH=0;" vertex="1" parent="1">
            <mxGeometry x="-190" y="270" width="120" height="20" as="geometry" />
          </mxCell>
        </object>
        <object label="&lt;i&gt;cabinAtmo.modelA.&lt;br&gt;mVestibule.mIf&lt;/i&gt;" About="Fluid Distributed Interface" Ports="0=node" c00.isPairMaster="false" c01.useEnthalpy="false" c02.demandOption="false" c03.capacitorLink="0" i00.malfBlockageFlag="false" i01.malfBlockageValue="0.0" i02.forceDemandMode="false" i03.forceSupplyMode="false" id="P64oohx6x9y642xr5XJO-20">
          <gunns type="Link" subtype="core/GunnsFluidDistributedIf" numPorts="1" reqPorts="0" />
          <mxCell style="shape=stencil(rVRbboMwEDyNfyviTQ5QuWn/okpVD7Ahm2IF1sg4j96+jk0kHAgCpX/sjGdn1lojQDUF1iRkhk1NuRPwJqQ8odW4LT0sPVNEUGaxZKwoIh/fm82XR9YXR5ax9J+fqG081jhrDnTWO9fqNRdktYvsOWLL0BPWInsV1/6ZAJUbZp9EG24SpsP73qjZJWHadLX3qMjnSdBLUv221csq1O9zbBYTbBYTbEB55NGooLaYH36sOfJuMFyN11vtETe6MifqxEnHbsuhqW/6UnNHD7P1o/5z7Z9Mf+c+wT5ND8+lX/7v5Y/4h43qLUZAH2wTqL2xNLJm8Q0Prm5PGdD4MwnAHw==);html=1;align=center;verticalLabelPosition=bottom;verticalAlign=top;dashed=0;labelBackgroundColor=none;fillColor=#ffffff;fontSize=12;direction=east;strokeColor=#007FFF;flipH=0;" vertex="1" parent="1">
            <mxGeometry x="-190" y="530" width="120" height="20" as="geometry" />
          </mxCell>
        </object>
        <mxCell id="P64oohx6x9y642xr5XJO-9" value="" style="endArrow=none;html=1;rounded=1;exitX=0.5;exitY=1;exitDx=0;exitDy=0;entryX=0.5;entryY=0;entryDx=0;entryDy=0;strokeColor=default;edgeStyle=orthogonalEdgeStyle;" edge="1" parent="1" source="P64oohx6x9y642xr5XJO-14" target="P64oohx6x9y642xr5XJO-13">
          <mxGeometry width="50" height="50" relative="1" as="geometry">
            <mxPoint x="-408" y="500" as="sourcePoint" />
            <mxPoint x="-290" y="500" as="targetPoint" />
          </mxGeometry>
        </mxCell>
        <mxCell id="P64oohx6x9y642xr5XJO-21" value="" style="endArrow=none;html=1;rounded=1;exitX=1;exitY=0.75;exitDx=0;exitDy=0;entryX=0;entryY=0.75;entryDx=0;entryDy=0;strokeColor=default;edgeStyle=orthogonalEdgeStyle;" edge="1" parent="1" source="P64oohx6x9y642xr5XJO-12" target="P64oohx6x9y642xr5XJO-13">
          <mxGeometry width="50" height="50" relative="1" as="geometry">
            <mxPoint x="-388" y="600" as="sourcePoint" />
            <mxPoint x="-270" y="600" as="targetPoint" />
          </mxGeometry>
        </mxCell>
        <object label="Hatch" About="Hatch" Ports="0=in, 1=out" c00.maxConductivity="0.0" c01.expansionScaleFactor="0.0" c02.thermalLength="0.0" c03.thermalDiameter="0.0" c04.surfaceRoughness="0.0" c05.length0="0.0" c06.length1="0.0" i00.malfBlockageFlag="false" i01.malfBlockageValue="0.0" i02.position="0.0" i03.malfLeakThruFlag="false" i04.malfLeakThruValue="0.0" i05.wallTemperature="0.0" id="P64oohx6x9y642xr5XJO-22">
          <gunns type="Link" subtype="aspects/fluid/conductor/GunnsFluidHatch" numPorts="2" reqPorts="0,1" />
          <mxCell style="verticalLabelPosition=bottom;align=center;fillColor=#ffffff;html=1;verticalAlign=top;strokeColor=#000000;strokeWidth=1;shape=stencil(pVXdboMgGH0abxcFa3q7uK276s3SB2CWTjIEA7R2e/ohYCYqpobEC79z/Djn8GcCS1mjFicgRbLFlUrgSwLADQmCPqmGgWZqC+apLRlqsEUOp+PxQyPvSFW1JaUS/Bt35KxcF2E1FkRZtrNYYUaCr0n6rMH+gWXFGdP6hDPpMSNej40IU54FwuzIrRZpsMLCws7q3at+XPW0M/XbFh1+VQ8IZQ8IwVIjobSwvHCBvwS/svOiPcOIfqFm69L55WBpEt5WSFSS/LpsDlyejwuh1C5q6AtMKWkl/jeUFZ6hoXSG+veRoQysiK8Lt6jfZDNioBt+w6E9sBJ5aKeEjdqzzf2+/C5Sv4jUz/xZD0/6sjzI/UXLN8rn+yh5WMTJT9LDfVx8UMTF36w/yb+ib26XwMEInSfTM7t3DGp/Dgb4Aw==);fontSize=12;fontColor=#000000;flipH=0;" vertex="1" parent="1">
            <mxGeometry x="-360" y="570" width="60" height="40" as="geometry" />
          </mxCell>
        </object>
        <mxCell id="P64oohx6x9y642xr5XJO-23" value="" style="endArrow=none;html=1;rounded=0;strokeColor=#B3B3B3;" edge="1" parent="1" source="P64oohx6x9y642xr5XJO-19" target="P64oohx6x9y642xr5XJO-1">
          <mxGeometry width="50" height="50" relative="1" as="geometry">
            <mxPoint x="-59.66942148760336" y="420" as="sourcePoint" />
            <mxPoint x="-129.66942148760336" y="390" as="targetPoint" />
          </mxGeometry>
        </mxCell>
        <mxCell id="P64oohx6x9y642xr5XJO-24" value="" style="endArrow=none;html=1;rounded=0;strokeColor=#B3B3B3;" edge="1" parent="1" source="P64oohx6x9y642xr5XJO-20" target="P64oohx6x9y642xr5XJO-1">
          <mxGeometry width="50" height="50" relative="1" as="geometry">
            <mxPoint x="-178.72222222222263" y="300" as="sourcePoint" />
            <mxPoint x="-129.72222222222263" y="420" as="targetPoint" />
          </mxGeometry>
        </mxCell>
        <mxCell id="P64oohx6x9y642xr5XJO-28" value="Conservation Checks&lt;br&gt;(&lt;i&gt;cabinAtmo.conservation&lt;/i&gt;)&lt;br&gt;&lt;br&gt;% errors from starting reference:&lt;br&gt;Total energy: &lt;i&gt;cabinAtmo.error.energy&lt;/i&gt;&lt;br&gt;Total moles: &lt;i&gt;cabinAtmo.error.moles&lt;/i&gt;&lt;br&gt;Moles N2: &lt;i&gt;cabinAtmo.error.molesN2&lt;/i&gt;&lt;br&gt;Moles O2: &lt;i&gt;cabinAtmo.error.molesO2&lt;/i&gt;&lt;br&gt;Moles H2O: &lt;i&gt;cabinAtmo.error.molesH2O&lt;/i&gt;&lt;br&gt;Moles CO2: &lt;i&gt;cabinAtmo.error.molesCO2&lt;/i&gt;" style="rounded=1;whiteSpace=wrap;html=1;dashed=1;arcSize=8;verticalAlign=top;" vertex="1" parent="1">
          <mxGeometry x="-400" y="730" width="260" height="160" as="geometry" />
        </mxCell>
        <mxCell id="P64oohx6x9y642xr5XJO-29" value="" style="endArrow=classic;html=1;rounded=0;entryX=0.25;entryY=0;entryDx=0;entryDy=0;exitX=0.5;exitY=1;exitDx=0;exitDy=0;strokeColor=#B3B3B3;" edge="1" parent="1" source="P64oohx6x9y642xr5XJO-26" target="P64oohx6x9y642xr5XJO-28">
          <mxGeometry width="50" height="50" relative="1" as="geometry">
            <mxPoint x="-320" y="780" as="sourcePoint" />
            <mxPoint x="-270" y="730" as="targetPoint" />
          </mxGeometry>
        </mxCell>
        <mxCell id="P64oohx6x9y642xr5XJO-30" value="&lt;font color=&quot;#b3b3b3&quot;&gt;Model A&lt;br&gt;total moles&lt;br&gt;&amp;amp; energy&lt;/font&gt;" style="edgeLabel;html=1;align=center;verticalAlign=middle;resizable=0;points=[];" vertex="1" connectable="0" parent="P64oohx6x9y642xr5XJO-29">
          <mxGeometry x="-0.0611" relative="1" as="geometry">
            <mxPoint y="1" as="offset" />
          </mxGeometry>
        </mxCell>
        <mxCell id="P64oohx6x9y642xr5XJO-31" value="" style="endArrow=classic;html=1;rounded=0;entryX=0.75;entryY=0;entryDx=0;entryDy=0;exitX=0.25;exitY=1;exitDx=0;exitDy=0;strokeColor=#B3B3B3;" edge="1" parent="1" source="P64oohx6x9y642xr5XJO-27" target="P64oohx6x9y642xr5XJO-28">
          <mxGeometry width="50" height="50" relative="1" as="geometry">
            <mxPoint x="-345" y="660" as="sourcePoint" />
            <mxPoint x="-225" y="770" as="targetPoint" />
          </mxGeometry>
        </mxCell>
        <mxCell id="P64oohx6x9y642xr5XJO-32" value="&lt;font color=&quot;#b3b3b3&quot;&gt;Model B&lt;br&gt;total moles&lt;br&gt;&amp;amp; energy&lt;/font&gt;" style="edgeLabel;html=1;align=center;verticalAlign=middle;resizable=0;points=[];" vertex="1" connectable="0" parent="P64oohx6x9y642xr5XJO-31">
          <mxGeometry x="-0.0611" relative="1" as="geometry">
            <mxPoint y="1" as="offset" />
          </mxGeometry>
        </mxCell>
        <object label="Grill Valve" About="Valve" Ports="0=in, 1=out" c00.maxConductivity="0.0" c01.expansionScaleFactor="0.0" c02.thermalLength="0.0" c03.thermalDiameter="0.0" c04.surfaceRoughness="0.0" i00.malfBlockageFlag="false" i01.malfBlockageValue="0.0" i02.position="0.0" i03.malfLeakThruFlag="false" i04.malfLeakThruValue="0.0" i05.wallTemperature="0.0" id="P64oohx6x9y642xr5XJO-16">
          <gunns type="Link" subtype="aspects/fluid/conductor/GunnsFluidValve" numPorts="2" reqPorts="0,1" />
          <mxCell style="verticalLabelPosition=middle;align=left;fillColor=#FFFFFF;html=1;verticalAlign=middle;strokeColor=#000000;strokeWidth=1;shape=stencil(pVTLboMwEPwaXyOCUyXXiD5uuVTN3SFuWdWske08+vddvCSKm1CBkLjsjGdn1iwIWfhKNVrkmfKNLoOQzyLPj8qB2hmCc2IqBhcZl6hqzcjbx2bzTshWmWN31gdnv/UJ9qFTAVbaQWD2xNgqdpIvIlsT2D6yKC0i+YNFnzA3PPVWgCGJAMidGzKpddCO4S7qOal+umr2FOvXMT72EAYYzQcYyYKQvmll8Wmd/nL2gPuH8RrVXuwdcaFr276Ia5w/g/eOfZEbwBv5MpUvJurHyuej7Utjvf7/SHpBqcPUhAP0qf1yov9qsD4uXc/u0M6BMfzhPlzWu5WMKP83IvAL);fontSize=12;fontColor=#000000;direction=south;labelPosition=right;flipH=0;" vertex="1" parent="1">
            <mxGeometry x="-250" y="340" width="40" height="80" as="geometry" />
          </mxCell>
        </object>
      </root>
    </mxGraphModel>
  </diagram>
  <diagram name="HLA" id="ReRL5brz3KYGBJOfKq62">
    <mxGraphModel dx="2092" dy="1114" grid="1" gridSize="10" guides="1" tooltips="1" connect="1" arrows="1" fold="1" page="1" pageScale="1" pageWidth="850" pageHeight="1100" math="0" shadow="0">
      <root>
        <mxCell id="AM5TrIHkVM9sAFbbRxFB-0" />
        <mxCell id="AM5TrIHkVM9sAFbbRxFB-1" parent="AM5TrIHkVM9sAFbbRxFB-0" />
        <mxCell id="D7kp9k7LArADHpQxPEDN-0" value="&lt;b&gt;&lt;font color=&quot;#ff0000&quot; style=&quot;font-size: 17px;&quot;&gt;HLA&lt;/font&gt;&lt;/b&gt;" style="rounded=1;whiteSpace=wrap;html=1;dashed=1;fillColor=#f8cecc;strokeColor=#b85450;" vertex="1" parent="AM5TrIHkVM9sAFbbRxFB-1">
          <mxGeometry x="-650" y="910" width="1510" height="60" as="geometry" />
        </mxCell>
        <mxCell id="4kTiEVnyez8a0h_j9eup-0" value="&lt;b&gt;&lt;font style=&quot;font-size: 16px;&quot;&gt;FED_1&lt;/font&gt;&lt;/b&gt;" style="rounded=0;whiteSpace=wrap;html=1;verticalAlign=top;align=left;fillColor=#ffe6cc;strokeColor=#d79b00;" vertex="1" parent="AM5TrIHkVM9sAFbbRxFB-1">
          <mxGeometry x="-650" y="120" width="1510" height="780" as="geometry" />
        </mxCell>
        <mxCell id="AM5TrIHkVM9sAFbbRxFB-2" value="Model 1 B&lt;br&gt;(&lt;i&gt;cabinAtmo.modelB&lt;/i&gt;)" style="rounded=1;whiteSpace=wrap;html=1;dashed=1;arcSize=8;verticalAlign=top;fillColor=#e1d5e7;strokeColor=#9673a6;" vertex="1" parent="AM5TrIHkVM9sAFbbRxFB-1">
          <mxGeometry x="80" y="150" width="770" height="500" as="geometry" />
        </mxCell>
        <mxCell id="AM5TrIHkVM9sAFbbRxFB-3" value="Model 1 A&lt;br&gt;(&lt;i&gt;cabinAtmo.modelA&lt;/i&gt;)" style="rounded=1;whiteSpace=wrap;html=1;dashed=1;arcSize=8;verticalAlign=top;fillColor=#d5e8d4;strokeColor=#82b366;" vertex="1" parent="AM5TrIHkVM9sAFbbRxFB-1">
          <mxGeometry x="-640" y="150" width="570" height="500" as="geometry" />
        </mxCell>
        <mxCell id="AM5TrIHkVM9sAFbbRxFB-4" value="" style="endArrow=none;html=1;rounded=1;exitX=0.5;exitY=1;exitDx=0;exitDy=0;entryX=0.5;entryY=0;entryDx=0;entryDy=0;strokeColor=default;edgeStyle=orthogonalEdgeStyle;" edge="1" parent="AM5TrIHkVM9sAFbbRxFB-1" source="AM5TrIHkVM9sAFbbRxFB-9" target="AM5TrIHkVM9sAFbbRxFB-8">
          <mxGeometry width="50" height="50" relative="1" as="geometry">
            <mxPoint x="418" y="500" as="sourcePoint" />
            <mxPoint x="300" y="500" as="targetPoint" />
          </mxGeometry>
        </mxCell>
        <mxCell id="AM5TrIHkVM9sAFbbRxFB-5" value="" style="endArrow=none;html=1;rounded=1;exitX=0;exitY=0.25;exitDx=0;exitDy=0;entryX=1;entryY=0.25;entryDx=0;entryDy=0;strokeColor=default;edgeStyle=orthogonalEdgeStyle;" edge="1" parent="AM5TrIHkVM9sAFbbRxFB-1" source="AM5TrIHkVM9sAFbbRxFB-7" target="AM5TrIHkVM9sAFbbRxFB-8">
          <mxGeometry width="50" height="50" relative="1" as="geometry">
            <mxPoint x="290" y="290" as="sourcePoint" />
            <mxPoint x="530" y="450" as="targetPoint" />
          </mxGeometry>
        </mxCell>
        <mxCell id="AM5TrIHkVM9sAFbbRxFB-6" value="" style="endArrow=none;html=1;rounded=1;exitX=1;exitY=0.5;exitDx=0;exitDy=0;entryX=0.5;entryY=0;entryDx=0;entryDy=0;strokeColor=default;edgeStyle=orthogonalEdgeStyle;" edge="1" parent="AM5TrIHkVM9sAFbbRxFB-1" source="AM5TrIHkVM9sAFbbRxFB-9" target="AM5TrIHkVM9sAFbbRxFB-7">
          <mxGeometry width="50" height="50" relative="1" as="geometry">
            <mxPoint x="450" y="180" as="sourcePoint" />
            <mxPoint x="500" y="130" as="targetPoint" />
          </mxGeometry>
        </mxCell>
        <mxCell id="AM5TrIHkVM9sAFbbRxFB-7" value="Cabin Volume&amp;nbsp;&lt;br&gt;(&lt;i&gt;cabinAtmo.modelB.mCabin&lt;/i&gt;)" style="rounded=1;whiteSpace=wrap;html=1;fillColor=#dae8fc;strokeColor=#6c8ebf;" vertex="1" parent="AM5TrIHkVM9sAFbbRxFB-1">
          <mxGeometry x="400" y="440" width="440" height="200" as="geometry" />
        </mxCell>
        <mxCell id="AM5TrIHkVM9sAFbbRxFB-8" value="Vestibule&lt;br&gt;Volume&lt;br&gt;(&lt;i&gt;cabinAtmo.&lt;br&gt;modelB.&lt;br&gt;mVestibule&lt;/i&gt;)" style="rounded=1;whiteSpace=wrap;html=1;fillColor=#dae8fc;strokeColor=#6c8ebf;" vertex="1" parent="AM5TrIHkVM9sAFbbRxFB-1">
          <mxGeometry x="200" y="440" width="80" height="200" as="geometry" />
        </mxCell>
        <mxCell id="AM5TrIHkVM9sAFbbRxFB-9" value="IMV Duct&lt;br&gt;Volume&lt;br&gt;(&lt;i&gt;cabinAtmo.&lt;br&gt;modelB.&lt;br&gt;mImvDuct&lt;/i&gt;)" style="rounded=1;whiteSpace=wrap;html=1;fillColor=#dae8fc;strokeColor=#6c8ebf;" vertex="1" parent="AM5TrIHkVM9sAFbbRxFB-1">
          <mxGeometry x="200" y="240" width="80" height="80" as="geometry" />
        </mxCell>
        <object label="MPEV" About="Valve" Ports="0=in, 1=out" c00.maxConductivity="0.0" c01.expansionScaleFactor="0.0" c02.thermalLength="0.0" c03.thermalDiameter="0.0" c04.surfaceRoughness="0.0" i00.malfBlockageFlag="false" i01.malfBlockageValue="0.0" i02.position="0.0" i03.malfLeakThruFlag="false" i04.malfLeakThruValue="0.0" i05.wallTemperature="0.0" id="AM5TrIHkVM9sAFbbRxFB-10">
          <gunns type="Link" subtype="aspects/fluid/conductor/GunnsFluidValve" numPorts="2" reqPorts="0,1" />
          <mxCell style="verticalLabelPosition=bottom;align=center;fillColor=#FFFFFF;html=1;verticalAlign=top;strokeColor=#000000;strokeWidth=1;shape=stencil(pVTLboMwEPwaXyOCUyXXiD5uuVTN3SFuWdWske08+vddvCSKm1CBkLjsjGdn1iwIWfhKNVrkmfKNLoOQzyLPj8qB2hmCc2IqBhcZl6hqzcjbx2bzTshWmWN31gdnv/UJ9qFTAVbaQWD2xNgqdpIvIlsT2D6yKC0i+YNFnzA3PPVWgCGJAMidGzKpddCO4S7qOal+umr2FOvXMT72EAYYzQcYyYKQvmll8Wmd/nL2gPuH8RrVXuwdcaFr276Ia5w/g/eOfZEbwBv5MpUvJurHyuej7Utjvf7/SHpBqcPUhAP0qf1yov9qsD4uXc/u0M6BMfzhPlzWu5WMKP83IvAL);fontSize=12;fontColor=#000000;" vertex="1" parent="AM5TrIHkVM9sAFbbRxFB-1">
            <mxGeometry x="300" y="470" width="80" height="40" as="geometry" />
          </mxCell>
        </object>
        <object label="Grill Valve" About="Valve" Ports="0=in, 1=out" c00.maxConductivity="0.0" c01.expansionScaleFactor="0.0" c02.thermalLength="0.0" c03.thermalDiameter="0.0" c04.surfaceRoughness="0.0" i00.malfBlockageFlag="false" i01.malfBlockageValue="0.0" i02.position="0.0" i03.malfLeakThruFlag="false" i04.malfLeakThruValue="0.0" i05.wallTemperature="0.0" id="AM5TrIHkVM9sAFbbRxFB-11">
          <gunns type="Link" subtype="aspects/fluid/conductor/GunnsFluidValve" numPorts="2" reqPorts="0,1" />
          <mxCell style="verticalLabelPosition=middle;align=left;fillColor=#FFFFFF;html=1;verticalAlign=middle;strokeColor=#000000;strokeWidth=1;shape=stencil(pVTLboMwEPwaXyOCUyXXiD5uuVTN3SFuWdWske08+vddvCSKm1CBkLjsjGdn1iwIWfhKNVrkmfKNLoOQzyLPj8qB2hmCc2IqBhcZl6hqzcjbx2bzTshWmWN31gdnv/UJ9qFTAVbaQWD2xNgqdpIvIlsT2D6yKC0i+YNFnzA3PPVWgCGJAMidGzKpddCO4S7qOal+umr2FOvXMT72EAYYzQcYyYKQvmll8Wmd/nL2gPuH8RrVXuwdcaFr276Ia5w/g/eOfZEbwBv5MpUvJurHyuej7Utjvf7/SHpBqcPUhAP0qf1yov9qsD4uXc/u0M6BMfzhPlzWu5WMKP83IvAL);fontSize=12;fontColor=#000000;direction=south;labelPosition=right;" vertex="1" parent="AM5TrIHkVM9sAFbbRxFB-1">
            <mxGeometry x="220" y="340" width="40" height="80" as="geometry" />
          </mxCell>
        </object>
        <object label="IMV valve" About="Valve" Ports="0=in, 1=out" c00.maxConductivity="0.0" c01.expansionScaleFactor="0.0" c02.thermalLength="0.0" c03.thermalDiameter="0.0" c04.surfaceRoughness="0.0" i00.malfBlockageFlag="false" i01.malfBlockageValue="0.0" i02.position="0.0" i03.malfLeakThruFlag="false" i04.malfLeakThruValue="0.0" i05.wallTemperature="0.0" id="AM5TrIHkVM9sAFbbRxFB-12">
          <gunns type="Link" subtype="aspects/fluid/conductor/GunnsFluidValve" numPorts="2" reqPorts="0,1" />
          <mxCell style="verticalLabelPosition=bottom;align=center;fillColor=#FFFFFF;html=1;verticalAlign=top;strokeColor=#000000;strokeWidth=1;shape=stencil(pVTLboMwEPwaXyOCUyXXiD5uuVTN3SFuWdWske08+vddvCSKm1CBkLjsjGdn1iwIWfhKNVrkmfKNLoOQzyLPj8qB2hmCc2IqBhcZl6hqzcjbx2bzTshWmWN31gdnv/UJ9qFTAVbaQWD2xNgqdpIvIlsT2D6yKC0i+YNFnzA3PPVWgCGJAMidGzKpddCO4S7qOal+umr2FOvXMT72EAYYzQcYyYKQvmll8Wmd/nL2gPuH8RrVXuwdcaFr276Ia5w/g/eOfZEbwBv5MpUvJurHyuej7Utjvf7/SHpBqcPUhAP0qf1yov9qsD4uXc/u0M6BMfzhPlzWu5WMKP83IvAL);fontSize=12;fontColor=#000000;" vertex="1" parent="AM5TrIHkVM9sAFbbRxFB-1">
            <mxGeometry x="300" y="260" width="80" height="40" as="geometry" />
          </mxCell>
        </object>
        <object label="IMV Fan" About="Gas Fan" Ports="0=in, 1=out" c00.maxConductivity="0.0" c01.expansionScaleFactor="0.0" c02.referenceDensity="0.0" c03.referenceSpeed="0.0" c04.referenceCoeff0="0.0" c05.referenceCoeff1="0.0" c06.referenceCoeff2="0.0" c07.referenceCoeff3="0.0" c08.referenceCoeff4="0.0" c09.referenceCoeff5="0.0" c10.bestEfficiency="0.0" c11.referenceQBep="0.0" c12.filterGain="0.5" c13.driveRatio="1.0" c14.thermalLength="0.0" c15.thermalDiameter="0.0" c16.surfaceRoughness="0.0" c17.checkValveActive="false" i00.malfBlockageFlag="false" i01.malfBlockageValue="0.0" i02.sourcePressure="0.0" i03.motorSpeed="0.0" i04.wallTemperature="0.0" id="AM5TrIHkVM9sAFbbRxFB-13">
          <gunns type="Link" subtype="aspects/fluid/potential/GunnsGasFan" numPorts="2" reqPorts="0,1" />
          <mxCell style="verticalLabelPosition=bottom;align=center;html=1;verticalAlign=top;shape=stencil(7VbLbsIwEPyaHINCzKvHKoXeuKCq5yUsYGHsyHYJ/H0NTmisJNRBlVAlpBy8s7FnvGNrHZBEbSHDII5AZZjqgLwFcXwASWHJDBybzNaCL5ENOezRIu8f8/nCIDPgNqW0FDvM6UoXcyjfoqTaZvPqOmQaRK8GPH8kSQXnhp0KrpxMJW/WBsq1I2BuF84Mxx41SosWOo9F1Bva+FTNzrrQLO6g6Xen+fShcfdSkHaimXrQ9D1oSGKQNuNIsoR0t5Hii68axSFjNFNYP165Gzbvu01OCylJ1kLiDTVrypg9vG3FzOB8pmuJMr0XB/xRO3DPQrtJ5XSQqRkwkBsMzThcM9g4G5fFyqSMT26scsSsMq3vVK/UcwzhSFUohYazZU2lHTxAbHSv2MnvYl1jxqRH3Gs66o2f7nRw51owH7nXcvs7NBk+fMP/2J0/1frL1fEy92mOc3X85V5/bm5HBm/pSOZFd7OR1RrvKKj23ZFb39itYXxDUnsPvcitdeALal+fF+Ab);strokeColor=#000000;strokeWidth=1;fontSize=12;fontColor=#000000;fillColor=#FFFFFF;" vertex="1" parent="AM5TrIHkVM9sAFbbRxFB-1">
            <mxGeometry x="420" y="260" width="40" height="40" as="geometry" />
          </mxCell>
        </object>
        <object label="&lt;i&gt;cabinAtmo.modelB.&lt;br&gt;mImvDuct.mIf&lt;/i&gt;" About="Fluid Distributed Interface" Ports="0=node" c00.isPairMaster="false" c01.useEnthalpy="false" c02.demandOption="false" c03.capacitorLink="0" i00.malfBlockageFlag="false" i01.malfBlockageValue="0.0" i02.forceDemandMode="false" i03.forceSupplyMode="false" id="AM5TrIHkVM9sAFbbRxFB-14">
          <gunns type="Link" subtype="core/GunnsFluidDistributedIf" numPorts="1" reqPorts="0" />
          <mxCell style="shape=stencil(rVRbboMwEDyNfyviTQ5QuWn/okpVD7Ahm2IF1sg4j96+jk0kHAgCpX/sjGdn1lojQDUF1iRkhk1NuRPwJqQ8odW4LT0sPVNEUGaxZKwoIh/fm82XR9YXR5ax9J+fqG081jhrDnTWO9fqNRdktYvsOWLL0BPWInsV1/6ZAJUbZp9EG24SpsP73qjZJWHadLX3qMjnSdBLUv221csq1O9zbBYTbBYTbEB55NGooLaYH36sOfJuMFyN11vtETe6MifqxEnHbsuhqW/6UnNHD7P1o/5z7Z9Mf+c+wT5ND8+lX/7v5Y/4h43qLUZAH2wTqL2xNLJm8Q0Prm5PGdD4MwnAHw==);html=1;align=center;verticalLabelPosition=top;verticalAlign=bottom;dashed=0;labelBackgroundColor=none;fillColor=#ffffff;fontSize=12;direction=east;strokeColor=#007FFF;labelPosition=center;" vertex="1" parent="AM5TrIHkVM9sAFbbRxFB-1">
            <mxGeometry x="80" y="270" width="120" height="20" as="geometry" />
          </mxCell>
        </object>
        <object label="&lt;i&gt;cabinAtmo.modelB.&lt;br&gt;mVestibule.mIf&lt;/i&gt;" About="Fluid Distributed Interface" Ports="0=node" c00.isPairMaster="false" c01.useEnthalpy="false" c02.demandOption="false" c03.capacitorLink="0" i00.malfBlockageFlag="false" i01.malfBlockageValue="0.0" i02.forceDemandMode="false" i03.forceSupplyMode="false" id="AM5TrIHkVM9sAFbbRxFB-15">
          <gunns type="Link" subtype="core/GunnsFluidDistributedIf" numPorts="1" reqPorts="0" />
          <mxCell style="shape=stencil(rVRbboMwEDyNfyviTQ5QuWn/okpVD7Ahm2IF1sg4j96+jk0kHAgCpX/sjGdn1lojQDUF1iRkhk1NuRPwJqQ8odW4LT0sPVNEUGaxZKwoIh/fm82XR9YXR5ax9J+fqG081jhrDnTWO9fqNRdktYvsOWLL0BPWInsV1/6ZAJUbZp9EG24SpsP73qjZJWHadLX3qMjnSdBLUv221csq1O9zbBYTbBYTbEB55NGooLaYH36sOfJuMFyN11vtETe6MifqxEnHbsuhqW/6UnNHD7P1o/5z7Z9Mf+c+wT5ND8+lX/7v5Y/4h43qLUZAH2wTqL2xNLJm8Q0Prm5PGdD4MwnAHw==);html=1;align=center;verticalLabelPosition=bottom;verticalAlign=top;dashed=0;labelBackgroundColor=none;fillColor=#ffffff;fontSize=12;direction=east;strokeColor=#007FFF;" vertex="1" parent="AM5TrIHkVM9sAFbbRxFB-1">
            <mxGeometry x="80" y="530" width="120" height="20" as="geometry" />
          </mxCell>
        </object>
        <mxCell id="AM5TrIHkVM9sAFbbRxFB-16" value="" style="endArrow=none;html=1;rounded=1;exitX=0;exitY=0.75;exitDx=0;exitDy=0;entryX=1;entryY=0.75;entryDx=0;entryDy=0;strokeColor=default;edgeStyle=orthogonalEdgeStyle;" edge="1" parent="AM5TrIHkVM9sAFbbRxFB-1" source="AM5TrIHkVM9sAFbbRxFB-7" target="AM5TrIHkVM9sAFbbRxFB-8">
          <mxGeometry width="50" height="50" relative="1" as="geometry">
            <mxPoint x="398" y="600" as="sourcePoint" />
            <mxPoint x="280" y="600" as="targetPoint" />
          </mxGeometry>
        </mxCell>
        <object label="Hatch" About="Hatch" Ports="0=in, 1=out" c00.maxConductivity="0.0" c01.expansionScaleFactor="0.0" c02.thermalLength="0.0" c03.thermalDiameter="0.0" c04.surfaceRoughness="0.0" c05.length0="0.0" c06.length1="0.0" i00.malfBlockageFlag="false" i01.malfBlockageValue="0.0" i02.position="0.0" i03.malfLeakThruFlag="false" i04.malfLeakThruValue="0.0" i05.wallTemperature="0.0" id="AM5TrIHkVM9sAFbbRxFB-17">
          <gunns type="Link" subtype="aspects/fluid/conductor/GunnsFluidHatch" numPorts="2" reqPorts="0,1" />
          <mxCell style="verticalLabelPosition=bottom;align=center;fillColor=#ffffff;html=1;verticalAlign=top;strokeColor=#000000;strokeWidth=1;shape=stencil(pVXdboMgGH0abxcFa3q7uK276s3SB2CWTjIEA7R2e/ohYCYqpobEC79z/Djn8GcCS1mjFicgRbLFlUrgSwLADQmCPqmGgWZqC+apLRlqsEUOp+PxQyPvSFW1JaUS/Bt35KxcF2E1FkRZtrNYYUaCr0n6rMH+gWXFGdP6hDPpMSNej40IU54FwuzIrRZpsMLCws7q3at+XPW0M/XbFh1+VQ8IZQ8IwVIjobSwvHCBvwS/svOiPcOIfqFm69L55WBpEt5WSFSS/LpsDlyejwuh1C5q6AtMKWkl/jeUFZ6hoXSG+veRoQysiK8Lt6jfZDNioBt+w6E9sBJ5aKeEjdqzzf2+/C5Sv4jUz/xZD0/6sjzI/UXLN8rn+yh5WMTJT9LDfVx8UMTF36w/yb+ib26XwMEInSfTM7t3DGp/Dgb4Aw==);fontSize=12;fontColor=#000000;" vertex="1" parent="AM5TrIHkVM9sAFbbRxFB-1">
            <mxGeometry x="310" y="570" width="60" height="40" as="geometry" />
          </mxCell>
        </object>
        <mxCell id="AM5TrIHkVM9sAFbbRxFB-18" value="Simple Cabin Atmosphere Model&lt;br&gt;(HLA config: ./runHLA.csh)" style="text;html=1;align=center;verticalAlign=middle;resizable=0;points=[];autosize=1;strokeColor=none;fillColor=none;fontStyle=1;fontSize=20;" vertex="1" parent="AM5TrIHkVM9sAFbbRxFB-1">
          <mxGeometry x="-165" y="50" width="340" height="60" as="geometry" />
        </mxCell>
        <mxCell id="AM5TrIHkVM9sAFbbRxFB-25" value="Cabin Volume&amp;nbsp;&lt;br&gt;(&lt;i&gt;cabinAtmo.modelA.mCabin&lt;/i&gt;)" style="rounded=1;whiteSpace=wrap;html=1;fillColor=#dae8fc;strokeColor=#6c8ebf;flipH=0;" vertex="1" parent="AM5TrIHkVM9sAFbbRxFB-1">
          <mxGeometry x="-630" y="440" width="240" height="200" as="geometry" />
        </mxCell>
        <mxCell id="AM5TrIHkVM9sAFbbRxFB-26" value="Vestibule&lt;br&gt;Volume&lt;br&gt;(&lt;i&gt;cabinAtmo.&lt;br&gt;modelA.&lt;br&gt;mVestibule&lt;/i&gt;)" style="rounded=1;whiteSpace=wrap;html=1;fillColor=#dae8fc;strokeColor=#6c8ebf;flipH=0;" vertex="1" parent="AM5TrIHkVM9sAFbbRxFB-1">
          <mxGeometry x="-270" y="440" width="80" height="200" as="geometry" />
        </mxCell>
        <mxCell id="AM5TrIHkVM9sAFbbRxFB-27" value="" style="endArrow=none;html=1;rounded=1;exitX=1;exitY=0.25;exitDx=0;exitDy=0;entryX=0;entryY=0.25;entryDx=0;entryDy=0;strokeColor=default;edgeStyle=orthogonalEdgeStyle;" edge="1" parent="AM5TrIHkVM9sAFbbRxFB-1" source="AM5TrIHkVM9sAFbbRxFB-25" target="AM5TrIHkVM9sAFbbRxFB-26">
          <mxGeometry width="50" height="50" relative="1" as="geometry">
            <mxPoint x="-280" y="290" as="sourcePoint" />
            <mxPoint x="-520" y="450" as="targetPoint" />
          </mxGeometry>
        </mxCell>
        <mxCell id="AM5TrIHkVM9sAFbbRxFB-28" value="IMV Duct&lt;br&gt;Volume&lt;br&gt;(&lt;i&gt;cabinAtmo.&lt;br&gt;modelA.&lt;br&gt;mImvDuct&lt;/i&gt;)" style="rounded=1;whiteSpace=wrap;html=1;fillColor=#dae8fc;strokeColor=#6c8ebf;flipH=0;" vertex="1" parent="AM5TrIHkVM9sAFbbRxFB-1">
          <mxGeometry x="-270" y="240" width="80" height="80" as="geometry" />
        </mxCell>
        <mxCell id="AM5TrIHkVM9sAFbbRxFB-29" value="" style="endArrow=none;html=1;rounded=1;exitX=0;exitY=0.5;exitDx=0;exitDy=0;entryX=0.5;entryY=0;entryDx=0;entryDy=0;strokeColor=default;edgeStyle=orthogonalEdgeStyle;" edge="1" parent="AM5TrIHkVM9sAFbbRxFB-1" source="AM5TrIHkVM9sAFbbRxFB-28" target="AM5TrIHkVM9sAFbbRxFB-25">
          <mxGeometry width="50" height="50" relative="1" as="geometry">
            <mxPoint x="-440" y="180" as="sourcePoint" />
            <mxPoint x="-490" y="130" as="targetPoint" />
          </mxGeometry>
        </mxCell>
        <object label="MPEV" About="Valve" Ports="0=in, 1=out" c00.maxConductivity="0.0" c01.expansionScaleFactor="0.0" c02.thermalLength="0.0" c03.thermalDiameter="0.0" c04.surfaceRoughness="0.0" i00.malfBlockageFlag="false" i01.malfBlockageValue="0.0" i02.position="0.0" i03.malfLeakThruFlag="false" i04.malfLeakThruValue="0.0" i05.wallTemperature="0.0" id="AM5TrIHkVM9sAFbbRxFB-30">
          <gunns type="Link" subtype="aspects/fluid/conductor/GunnsFluidValve" numPorts="2" reqPorts="0,1" />
          <mxCell style="verticalLabelPosition=bottom;align=center;fillColor=#FFFFFF;html=1;verticalAlign=top;strokeColor=#000000;strokeWidth=1;shape=stencil(pVTLboMwEPwaXyOCUyXXiD5uuVTN3SFuWdWske08+vddvCSKm1CBkLjsjGdn1iwIWfhKNVrkmfKNLoOQzyLPj8qB2hmCc2IqBhcZl6hqzcjbx2bzTshWmWN31gdnv/UJ9qFTAVbaQWD2xNgqdpIvIlsT2D6yKC0i+YNFnzA3PPVWgCGJAMidGzKpddCO4S7qOal+umr2FOvXMT72EAYYzQcYyYKQvmll8Wmd/nL2gPuH8RrVXuwdcaFr276Ia5w/g/eOfZEbwBv5MpUvJurHyuej7Utjvf7/SHpBqcPUhAP0qf1yov9qsD4uXc/u0M6BMfzhPlzWu5WMKP83IvAL);fontSize=12;fontColor=#000000;flipH=0;" vertex="1" parent="AM5TrIHkVM9sAFbbRxFB-1">
            <mxGeometry x="-370" y="470" width="80" height="40" as="geometry" />
          </mxCell>
        </object>
        <object label="IMV valve" About="Valve" Ports="0=in, 1=out" c00.maxConductivity="0.0" c01.expansionScaleFactor="0.0" c02.thermalLength="0.0" c03.thermalDiameter="0.0" c04.surfaceRoughness="0.0" i00.malfBlockageFlag="false" i01.malfBlockageValue="0.0" i02.position="0.0" i03.malfLeakThruFlag="false" i04.malfLeakThruValue="0.0" i05.wallTemperature="0.0" id="AM5TrIHkVM9sAFbbRxFB-31">
          <gunns type="Link" subtype="aspects/fluid/conductor/GunnsFluidValve" numPorts="2" reqPorts="0,1" />
          <mxCell style="verticalLabelPosition=bottom;align=center;fillColor=#FFFFFF;html=1;verticalAlign=top;strokeColor=#000000;strokeWidth=1;shape=stencil(pVTLboMwEPwaXyOCUyXXiD5uuVTN3SFuWdWske08+vddvCSKm1CBkLjsjGdn1iwIWfhKNVrkmfKNLoOQzyLPj8qB2hmCc2IqBhcZl6hqzcjbx2bzTshWmWN31gdnv/UJ9qFTAVbaQWD2xNgqdpIvIlsT2D6yKC0i+YNFnzA3PPVWgCGJAMidGzKpddCO4S7qOal+umr2FOvXMT72EAYYzQcYyYKQvmll8Wmd/nL2gPuH8RrVXuwdcaFr276Ia5w/g/eOfZEbwBv5MpUvJurHyuej7Utjvf7/SHpBqcPUhAP0qf1yov9qsD4uXc/u0M6BMfzhPlzWu5WMKP83IvAL);fontSize=12;fontColor=#000000;flipH=0;" vertex="1" parent="AM5TrIHkVM9sAFbbRxFB-1">
            <mxGeometry x="-370" y="260" width="80" height="40" as="geometry" />
          </mxCell>
        </object>
        <object label="IMV Fan" About="Gas Fan" Ports="0=in, 1=out" c00.maxConductivity="0.0" c01.expansionScaleFactor="0.0" c02.referenceDensity="0.0" c03.referenceSpeed="0.0" c04.referenceCoeff0="0.0" c05.referenceCoeff1="0.0" c06.referenceCoeff2="0.0" c07.referenceCoeff3="0.0" c08.referenceCoeff4="0.0" c09.referenceCoeff5="0.0" c10.bestEfficiency="0.0" c11.referenceQBep="0.0" c12.filterGain="0.5" c13.driveRatio="1.0" c14.thermalLength="0.0" c15.thermalDiameter="0.0" c16.surfaceRoughness="0.0" c17.checkValveActive="false" i00.malfBlockageFlag="false" i01.malfBlockageValue="0.0" i02.sourcePressure="0.0" i03.motorSpeed="0.0" i04.wallTemperature="0.0" id="AM5TrIHkVM9sAFbbRxFB-32">
          <gunns type="Link" subtype="aspects/fluid/potential/GunnsGasFan" numPorts="2" reqPorts="0,1" />
          <mxCell style="verticalLabelPosition=bottom;align=center;html=1;verticalAlign=top;shape=stencil(7VbLbsIwEPyaHINCzKvHKoXeuKCq5yUsYGHsyHYJ/H0NTmisJNRBlVAlpBy8s7FnvGNrHZBEbSHDII5AZZjqgLwFcXwASWHJDBybzNaCL5ENOezRIu8f8/nCIDPgNqW0FDvM6UoXcyjfoqTaZvPqOmQaRK8GPH8kSQXnhp0KrpxMJW/WBsq1I2BuF84Mxx41SosWOo9F1Bva+FTNzrrQLO6g6Xen+fShcfdSkHaimXrQ9D1oSGKQNuNIsoR0t5Hii68axSFjNFNYP165Gzbvu01OCylJ1kLiDTVrypg9vG3FzOB8pmuJMr0XB/xRO3DPQrtJ5XSQqRkwkBsMzThcM9g4G5fFyqSMT26scsSsMq3vVK/UcwzhSFUohYazZU2lHTxAbHSv2MnvYl1jxqRH3Gs66o2f7nRw51owH7nXcvs7NBk+fMP/2J0/1frL1fEy92mOc3X85V5/bm5HBm/pSOZFd7OR1RrvKKj23ZFb39itYXxDUnsPvcitdeALal+fF+Ab);strokeColor=#000000;strokeWidth=1;fontSize=12;fontColor=#000000;fillColor=#FFFFFF;flipH=0;" vertex="1" parent="AM5TrIHkVM9sAFbbRxFB-1">
            <mxGeometry x="-450" y="260" width="40" height="40" as="geometry" />
          </mxCell>
        </object>
        <object label="&lt;i&gt;cabinAtmo.modelA.&lt;br&gt;mImvDuct.mIf&lt;/i&gt;" About="Fluid Distributed Interface" Ports="0=node" c00.isPairMaster="false" c01.useEnthalpy="false" c02.demandOption="false" c03.capacitorLink="0" i00.malfBlockageFlag="false" i01.malfBlockageValue="0.0" i02.forceDemandMode="false" i03.forceSupplyMode="false" id="AM5TrIHkVM9sAFbbRxFB-33">
          <gunns type="Link" subtype="core/GunnsFluidDistributedIf" numPorts="1" reqPorts="0" />
          <mxCell style="shape=stencil(rVRbboMwEDyNfyviTQ5QuWn/okpVD7Ahm2IF1sg4j96+jk0kHAgCpX/sjGdn1lojQDUF1iRkhk1NuRPwJqQ8odW4LT0sPVNEUGaxZKwoIh/fm82XR9YXR5ax9J+fqG081jhrDnTWO9fqNRdktYvsOWLL0BPWInsV1/6ZAJUbZp9EG24SpsP73qjZJWHadLX3qMjnSdBLUv221csq1O9zbBYTbBYTbEB55NGooLaYH36sOfJuMFyN11vtETe6MifqxEnHbsuhqW/6UnNHD7P1o/5z7Z9Mf+c+wT5ND8+lX/7v5Y/4h43qLUZAH2wTqL2xNLJm8Q0Prm5PGdD4MwnAHw==);html=1;align=center;verticalLabelPosition=top;verticalAlign=bottom;dashed=0;labelBackgroundColor=none;fillColor=#ffffff;fontSize=12;direction=east;strokeColor=#007FFF;labelPosition=center;flipH=0;" vertex="1" parent="AM5TrIHkVM9sAFbbRxFB-1">
            <mxGeometry x="-190" y="270" width="120" height="20" as="geometry" />
          </mxCell>
        </object>
        <object label="&lt;i&gt;cabinAtmo.modelA.&lt;br&gt;mVestibule.mIf&lt;/i&gt;" About="Fluid Distributed Interface" Ports="0=node" c00.isPairMaster="false" c01.useEnthalpy="false" c02.demandOption="false" c03.capacitorLink="0" i00.malfBlockageFlag="false" i01.malfBlockageValue="0.0" i02.forceDemandMode="false" i03.forceSupplyMode="false" id="AM5TrIHkVM9sAFbbRxFB-34">
          <gunns type="Link" subtype="core/GunnsFluidDistributedIf" numPorts="1" reqPorts="0" />
          <mxCell style="shape=stencil(rVRbboMwEDyNfyviTQ5QuWn/okpVD7Ahm2IF1sg4j96+jk0kHAgCpX/sjGdn1lojQDUF1iRkhk1NuRPwJqQ8odW4LT0sPVNEUGaxZKwoIh/fm82XR9YXR5ax9J+fqG081jhrDnTWO9fqNRdktYvsOWLL0BPWInsV1/6ZAJUbZp9EG24SpsP73qjZJWHadLX3qMjnSdBLUv221csq1O9zbBYTbBYTbEB55NGooLaYH36sOfJuMFyN11vtETe6MifqxEnHbsuhqW/6UnNHD7P1o/5z7Z9Mf+c+wT5ND8+lX/7v5Y/4h43qLUZAH2wTqL2xNLJm8Q0Prm5PGdD4MwnAHw==);html=1;align=center;verticalLabelPosition=bottom;verticalAlign=top;dashed=0;labelBackgroundColor=none;fillColor=#ffffff;fontSize=12;direction=east;strokeColor=#007FFF;flipH=0;" vertex="1" parent="AM5TrIHkVM9sAFbbRxFB-1">
            <mxGeometry x="-190" y="530" width="120" height="20" as="geometry" />
          </mxCell>
        </object>
        <mxCell id="AM5TrIHkVM9sAFbbRxFB-35" value="" style="endArrow=none;html=1;rounded=1;exitX=0.5;exitY=1;exitDx=0;exitDy=0;entryX=0.5;entryY=0;entryDx=0;entryDy=0;strokeColor=default;edgeStyle=orthogonalEdgeStyle;" edge="1" parent="AM5TrIHkVM9sAFbbRxFB-1" source="AM5TrIHkVM9sAFbbRxFB-28" target="AM5TrIHkVM9sAFbbRxFB-26">
          <mxGeometry width="50" height="50" relative="1" as="geometry">
            <mxPoint x="-408" y="500" as="sourcePoint" />
            <mxPoint x="-290" y="500" as="targetPoint" />
          </mxGeometry>
        </mxCell>
        <mxCell id="AM5TrIHkVM9sAFbbRxFB-36" value="" style="endArrow=none;html=1;rounded=1;exitX=1;exitY=0.75;exitDx=0;exitDy=0;entryX=0;entryY=0.75;entryDx=0;entryDy=0;strokeColor=default;edgeStyle=orthogonalEdgeStyle;" edge="1" parent="AM5TrIHkVM9sAFbbRxFB-1" source="AM5TrIHkVM9sAFbbRxFB-25" target="AM5TrIHkVM9sAFbbRxFB-26">
          <mxGeometry width="50" height="50" relative="1" as="geometry">
            <mxPoint x="-388" y="600" as="sourcePoint" />
            <mxPoint x="-270" y="600" as="targetPoint" />
          </mxGeometry>
        </mxCell>
        <object label="Hatch" About="Hatch" Ports="0=in, 1=out" c00.maxConductivity="0.0" c01.expansionScaleFactor="0.0" c02.thermalLength="0.0" c03.thermalDiameter="0.0" c04.surfaceRoughness="0.0" c05.length0="0.0" c06.length1="0.0" i00.malfBlockageFlag="false" i01.malfBlockageValue="0.0" i02.position="0.0" i03.malfLeakThruFlag="false" i04.malfLeakThruValue="0.0" i05.wallTemperature="0.0" id="AM5TrIHkVM9sAFbbRxFB-37">
          <gunns type="Link" subtype="aspects/fluid/conductor/GunnsFluidHatch" numPorts="2" reqPorts="0,1" />
          <mxCell style="verticalLabelPosition=bottom;align=center;fillColor=#ffffff;html=1;verticalAlign=top;strokeColor=#000000;strokeWidth=1;shape=stencil(pVXdboMgGH0abxcFa3q7uK276s3SB2CWTjIEA7R2e/ohYCYqpobEC79z/Djn8GcCS1mjFicgRbLFlUrgSwLADQmCPqmGgWZqC+apLRlqsEUOp+PxQyPvSFW1JaUS/Bt35KxcF2E1FkRZtrNYYUaCr0n6rMH+gWXFGdP6hDPpMSNej40IU54FwuzIrRZpsMLCws7q3at+XPW0M/XbFh1+VQ8IZQ8IwVIjobSwvHCBvwS/svOiPcOIfqFm69L55WBpEt5WSFSS/LpsDlyejwuh1C5q6AtMKWkl/jeUFZ6hoXSG+veRoQysiK8Lt6jfZDNioBt+w6E9sBJ5aKeEjdqzzf2+/C5Sv4jUz/xZD0/6sjzI/UXLN8rn+yh5WMTJT9LDfVx8UMTF36w/yb+ib26XwMEInSfTM7t3DGp/Dgb4Aw==);fontSize=12;fontColor=#000000;flipH=0;" vertex="1" parent="AM5TrIHkVM9sAFbbRxFB-1">
            <mxGeometry x="-360" y="570" width="60" height="40" as="geometry" />
          </mxCell>
        </object>
        <mxCell id="AM5TrIHkVM9sAFbbRxFB-40" value="Conservation Checks&lt;br&gt;(&lt;i&gt;cabinAtmo.conservation&lt;/i&gt;)&lt;br&gt;&lt;br&gt;% errors from starting reference:&lt;br&gt;Total energy: &lt;i&gt;cabinAtmo.error.energy&lt;/i&gt;&lt;br&gt;Total moles: &lt;i&gt;cabinAtmo.error.moles&lt;/i&gt;&lt;br&gt;Moles N2: &lt;i&gt;cabinAtmo.error.molesN2&lt;/i&gt;&lt;br&gt;Moles O2: &lt;i&gt;cabinAtmo.error.molesO2&lt;/i&gt;&lt;br&gt;Moles H2O: &lt;i&gt;cabinAtmo.error.molesH2O&lt;/i&gt;&lt;br&gt;Moles CO2: &lt;i&gt;cabinAtmo.error.molesCO2&lt;/i&gt;" style="rounded=1;whiteSpace=wrap;html=1;dashed=1;arcSize=8;verticalAlign=top;fillColor=#d5e8d4;strokeColor=#82b366;" vertex="1" parent="AM5TrIHkVM9sAFbbRxFB-1">
          <mxGeometry x="-400" y="730" width="260" height="160" as="geometry" />
        </mxCell>
        <mxCell id="AM5TrIHkVM9sAFbbRxFB-41" value="" style="endArrow=classic;html=1;rounded=0;entryX=0.25;entryY=0;entryDx=0;entryDy=0;exitX=0.5;exitY=1;exitDx=0;exitDy=0;strokeColor=#B3B3B3;" edge="1" parent="AM5TrIHkVM9sAFbbRxFB-1" source="AM5TrIHkVM9sAFbbRxFB-3" target="AM5TrIHkVM9sAFbbRxFB-40">
          <mxGeometry width="50" height="50" relative="1" as="geometry">
            <mxPoint x="-320" y="780" as="sourcePoint" />
            <mxPoint x="-270" y="730" as="targetPoint" />
          </mxGeometry>
        </mxCell>
        <mxCell id="AM5TrIHkVM9sAFbbRxFB-42" value="&lt;font color=&quot;#b3b3b3&quot;&gt;Model A&lt;br&gt;total moles&lt;br&gt;&amp;amp; energy&lt;/font&gt;" style="edgeLabel;html=1;align=center;verticalAlign=middle;resizable=0;points=[];" vertex="1" connectable="0" parent="AM5TrIHkVM9sAFbbRxFB-41">
          <mxGeometry x="-0.0611" relative="1" as="geometry">
            <mxPoint y="1" as="offset" />
          </mxGeometry>
        </mxCell>
        <object label="Grill Valve" About="Valve" Ports="0=in, 1=out" c00.maxConductivity="0.0" c01.expansionScaleFactor="0.0" c02.thermalLength="0.0" c03.thermalDiameter="0.0" c04.surfaceRoughness="0.0" i00.malfBlockageFlag="false" i01.malfBlockageValue="0.0" i02.position="0.0" i03.malfLeakThruFlag="false" i04.malfLeakThruValue="0.0" i05.wallTemperature="0.0" id="AM5TrIHkVM9sAFbbRxFB-45">
          <gunns type="Link" subtype="aspects/fluid/conductor/GunnsFluidValve" numPorts="2" reqPorts="0,1" />
          <mxCell style="verticalLabelPosition=middle;align=left;fillColor=#FFFFFF;html=1;verticalAlign=middle;strokeColor=#000000;strokeWidth=1;shape=stencil(pVTLboMwEPwaXyOCUyXXiD5uuVTN3SFuWdWske08+vddvCSKm1CBkLjsjGdn1iwIWfhKNVrkmfKNLoOQzyLPj8qB2hmCc2IqBhcZl6hqzcjbx2bzTshWmWN31gdnv/UJ9qFTAVbaQWD2xNgqdpIvIlsT2D6yKC0i+YNFnzA3PPVWgCGJAMidGzKpddCO4S7qOal+umr2FOvXMT72EAYYzQcYyYKQvmll8Wmd/nL2gPuH8RrVXuwdcaFr276Ia5w/g/eOfZEbwBv5MpUvJurHyuej7Utjvf7/SHpBqcPUhAP0qf1yov9qsD4uXc/u0M6BMfzhPlzWu5WMKP83IvAL);fontSize=12;fontColor=#000000;direction=south;labelPosition=right;flipH=0;" vertex="1" parent="AM5TrIHkVM9sAFbbRxFB-1">
            <mxGeometry x="-250" y="340" width="40" height="80" as="geometry" />
          </mxCell>
        </object>
        <mxCell id="4kTiEVnyez8a0h_j9eup-1" value="&lt;b&gt;&lt;font style=&quot;font-size: 16px;&quot;&gt;FED_2&lt;/font&gt;&lt;/b&gt;" style="rounded=0;whiteSpace=wrap;html=1;verticalAlign=top;align=left;fillColor=#fff2cc;strokeColor=#d6b656;" vertex="1" parent="AM5TrIHkVM9sAFbbRxFB-1">
          <mxGeometry x="-650" y="980" width="1510" height="780" as="geometry" />
        </mxCell>
        <mxCell id="4kTiEVnyez8a0h_j9eup-2" value="Model 2 B&lt;br&gt;(&lt;i&gt;cabinAtmo.modelB&lt;/i&gt;)" style="rounded=1;whiteSpace=wrap;html=1;dashed=1;arcSize=8;verticalAlign=top;fillColor=#d5e8d4;strokeColor=#82b366;" vertex="1" parent="AM5TrIHkVM9sAFbbRxFB-1">
          <mxGeometry x="-590" y="1250" width="770" height="500" as="geometry" />
        </mxCell>
        <mxCell id="4kTiEVnyez8a0h_j9eup-3" value="Model 2 A&lt;br&gt;(&lt;i&gt;cabinAtmo.modelA&lt;/i&gt;)" style="rounded=1;whiteSpace=wrap;html=1;dashed=1;arcSize=8;verticalAlign=top;fillColor=#e1d5e7;strokeColor=#9673a6;" vertex="1" parent="AM5TrIHkVM9sAFbbRxFB-1">
          <mxGeometry x="220" y="1250" width="570" height="500" as="geometry" />
        </mxCell>
        <mxCell id="4kTiEVnyez8a0h_j9eup-4" value="" style="endArrow=none;html=1;rounded=1;exitX=0.5;exitY=1;exitDx=0;exitDy=0;entryX=0.5;entryY=0;entryDx=0;entryDy=0;strokeColor=default;edgeStyle=orthogonalEdgeStyle;" edge="1" parent="AM5TrIHkVM9sAFbbRxFB-1" source="4kTiEVnyez8a0h_j9eup-9" target="4kTiEVnyez8a0h_j9eup-8">
          <mxGeometry width="50" height="50" relative="1" as="geometry">
            <mxPoint x="-252" y="1600" as="sourcePoint" />
            <mxPoint x="-370" y="1600" as="targetPoint" />
          </mxGeometry>
        </mxCell>
        <mxCell id="4kTiEVnyez8a0h_j9eup-5" value="" style="endArrow=none;html=1;rounded=1;exitX=0;exitY=0.25;exitDx=0;exitDy=0;entryX=1;entryY=0.25;entryDx=0;entryDy=0;strokeColor=default;edgeStyle=orthogonalEdgeStyle;" edge="1" parent="AM5TrIHkVM9sAFbbRxFB-1" source="4kTiEVnyez8a0h_j9eup-7" target="4kTiEVnyez8a0h_j9eup-8">
          <mxGeometry width="50" height="50" relative="1" as="geometry">
            <mxPoint x="-380" y="1390" as="sourcePoint" />
            <mxPoint x="-140" y="1550" as="targetPoint" />
          </mxGeometry>
        </mxCell>
        <mxCell id="4kTiEVnyez8a0h_j9eup-6" value="" style="endArrow=none;html=1;rounded=1;exitX=1;exitY=0.5;exitDx=0;exitDy=0;entryX=0.5;entryY=0;entryDx=0;entryDy=0;strokeColor=default;edgeStyle=orthogonalEdgeStyle;" edge="1" parent="AM5TrIHkVM9sAFbbRxFB-1" source="4kTiEVnyez8a0h_j9eup-9" target="4kTiEVnyez8a0h_j9eup-7">
          <mxGeometry width="50" height="50" relative="1" as="geometry">
            <mxPoint x="-220" y="1280" as="sourcePoint" />
            <mxPoint x="-170" y="1230" as="targetPoint" />
          </mxGeometry>
        </mxCell>
        <mxCell id="4kTiEVnyez8a0h_j9eup-7" value="Cabin Volume&amp;nbsp;&lt;br&gt;(&lt;i&gt;cabinAtmo.modelB.mCabin&lt;/i&gt;)" style="rounded=1;whiteSpace=wrap;html=1;fillColor=#dae8fc;strokeColor=#6c8ebf;" vertex="1" parent="AM5TrIHkVM9sAFbbRxFB-1">
          <mxGeometry x="-270" y="1540" width="440" height="200" as="geometry" />
        </mxCell>
        <mxCell id="4kTiEVnyez8a0h_j9eup-8" value="Vestibule&lt;br&gt;Volume&lt;br&gt;(&lt;i&gt;cabinAtmo.&lt;br&gt;modelB.&lt;br&gt;mVestibule&lt;/i&gt;)" style="rounded=1;whiteSpace=wrap;html=1;fillColor=#dae8fc;strokeColor=#6c8ebf;" vertex="1" parent="AM5TrIHkVM9sAFbbRxFB-1">
          <mxGeometry x="-470" y="1540" width="80" height="200" as="geometry" />
        </mxCell>
        <mxCell id="4kTiEVnyez8a0h_j9eup-9" value="IMV Duct&lt;br&gt;Volume&lt;br&gt;(&lt;i&gt;cabinAtmo.&lt;br&gt;modelB.&lt;br&gt;mImvDuct&lt;/i&gt;)" style="rounded=1;whiteSpace=wrap;html=1;fillColor=#dae8fc;strokeColor=#6c8ebf;" vertex="1" parent="AM5TrIHkVM9sAFbbRxFB-1">
          <mxGeometry x="-470" y="1340" width="80" height="80" as="geometry" />
        </mxCell>
        <object label="MPEV" About="Valve" Ports="0=in, 1=out" c00.maxConductivity="0.0" c01.expansionScaleFactor="0.0" c02.thermalLength="0.0" c03.thermalDiameter="0.0" c04.surfaceRoughness="0.0" i00.malfBlockageFlag="false" i01.malfBlockageValue="0.0" i02.position="0.0" i03.malfLeakThruFlag="false" i04.malfLeakThruValue="0.0" i05.wallTemperature="0.0" id="4kTiEVnyez8a0h_j9eup-10">
          <gunns type="Link" subtype="aspects/fluid/conductor/GunnsFluidValve" numPorts="2" reqPorts="0,1" />
          <mxCell style="verticalLabelPosition=bottom;align=center;fillColor=#FFFFFF;html=1;verticalAlign=top;strokeColor=#000000;strokeWidth=1;shape=stencil(pVTLboMwEPwaXyOCUyXXiD5uuVTN3SFuWdWske08+vddvCSKm1CBkLjsjGdn1iwIWfhKNVrkmfKNLoOQzyLPj8qB2hmCc2IqBhcZl6hqzcjbx2bzTshWmWN31gdnv/UJ9qFTAVbaQWD2xNgqdpIvIlsT2D6yKC0i+YNFnzA3PPVWgCGJAMidGzKpddCO4S7qOal+umr2FOvXMT72EAYYzQcYyYKQvmll8Wmd/nL2gPuH8RrVXuwdcaFr276Ia5w/g/eOfZEbwBv5MpUvJurHyuej7Utjvf7/SHpBqcPUhAP0qf1yov9qsD4uXc/u0M6BMfzhPlzWu5WMKP83IvAL);fontSize=12;fontColor=#000000;" vertex="1" parent="AM5TrIHkVM9sAFbbRxFB-1">
            <mxGeometry x="-370" y="1570" width="80" height="40" as="geometry" />
          </mxCell>
        </object>
        <object label="Grill Valve" About="Valve" Ports="0=in, 1=out" c00.maxConductivity="0.0" c01.expansionScaleFactor="0.0" c02.thermalLength="0.0" c03.thermalDiameter="0.0" c04.surfaceRoughness="0.0" i00.malfBlockageFlag="false" i01.malfBlockageValue="0.0" i02.position="0.0" i03.malfLeakThruFlag="false" i04.malfLeakThruValue="0.0" i05.wallTemperature="0.0" id="4kTiEVnyez8a0h_j9eup-11">
          <gunns type="Link" subtype="aspects/fluid/conductor/GunnsFluidValve" numPorts="2" reqPorts="0,1" />
          <mxCell style="verticalLabelPosition=middle;align=left;fillColor=#FFFFFF;html=1;verticalAlign=middle;strokeColor=#000000;strokeWidth=1;shape=stencil(pVTLboMwEPwaXyOCUyXXiD5uuVTN3SFuWdWske08+vddvCSKm1CBkLjsjGdn1iwIWfhKNVrkmfKNLoOQzyLPj8qB2hmCc2IqBhcZl6hqzcjbx2bzTshWmWN31gdnv/UJ9qFTAVbaQWD2xNgqdpIvIlsT2D6yKC0i+YNFnzA3PPVWgCGJAMidGzKpddCO4S7qOal+umr2FOvXMT72EAYYzQcYyYKQvmll8Wmd/nL2gPuH8RrVXuwdcaFr276Ia5w/g/eOfZEbwBv5MpUvJurHyuej7Utjvf7/SHpBqcPUhAP0qf1yov9qsD4uXc/u0M6BMfzhPlzWu5WMKP83IvAL);fontSize=12;fontColor=#000000;direction=south;labelPosition=right;" vertex="1" parent="AM5TrIHkVM9sAFbbRxFB-1">
            <mxGeometry x="-450" y="1440" width="40" height="80" as="geometry" />
          </mxCell>
        </object>
        <object label="IMV valve" About="Valve" Ports="0=in, 1=out" c00.maxConductivity="0.0" c01.expansionScaleFactor="0.0" c02.thermalLength="0.0" c03.thermalDiameter="0.0" c04.surfaceRoughness="0.0" i00.malfBlockageFlag="false" i01.malfBlockageValue="0.0" i02.position="0.0" i03.malfLeakThruFlag="false" i04.malfLeakThruValue="0.0" i05.wallTemperature="0.0" id="4kTiEVnyez8a0h_j9eup-12">
          <gunns type="Link" subtype="aspects/fluid/conductor/GunnsFluidValve" numPorts="2" reqPorts="0,1" />
          <mxCell style="verticalLabelPosition=bottom;align=center;fillColor=#FFFFFF;html=1;verticalAlign=top;strokeColor=#000000;strokeWidth=1;shape=stencil(pVTLboMwEPwaXyOCUyXXiD5uuVTN3SFuWdWske08+vddvCSKm1CBkLjsjGdn1iwIWfhKNVrkmfKNLoOQzyLPj8qB2hmCc2IqBhcZl6hqzcjbx2bzTshWmWN31gdnv/UJ9qFTAVbaQWD2xNgqdpIvIlsT2D6yKC0i+YNFnzA3PPVWgCGJAMidGzKpddCO4S7qOal+umr2FOvXMT72EAYYzQcYyYKQvmll8Wmd/nL2gPuH8RrVXuwdcaFr276Ia5w/g/eOfZEbwBv5MpUvJurHyuej7Utjvf7/SHpBqcPUhAP0qf1yov9qsD4uXc/u0M6BMfzhPlzWu5WMKP83IvAL);fontSize=12;fontColor=#000000;" vertex="1" parent="AM5TrIHkVM9sAFbbRxFB-1">
            <mxGeometry x="-370" y="1360" width="80" height="40" as="geometry" />
          </mxCell>
        </object>
        <object label="IMV Fan" About="Gas Fan" Ports="0=in, 1=out" c00.maxConductivity="0.0" c01.expansionScaleFactor="0.0" c02.referenceDensity="0.0" c03.referenceSpeed="0.0" c04.referenceCoeff0="0.0" c05.referenceCoeff1="0.0" c06.referenceCoeff2="0.0" c07.referenceCoeff3="0.0" c08.referenceCoeff4="0.0" c09.referenceCoeff5="0.0" c10.bestEfficiency="0.0" c11.referenceQBep="0.0" c12.filterGain="0.5" c13.driveRatio="1.0" c14.thermalLength="0.0" c15.thermalDiameter="0.0" c16.surfaceRoughness="0.0" c17.checkValveActive="false" i00.malfBlockageFlag="false" i01.malfBlockageValue="0.0" i02.sourcePressure="0.0" i03.motorSpeed="0.0" i04.wallTemperature="0.0" id="4kTiEVnyez8a0h_j9eup-13">
          <gunns type="Link" subtype="aspects/fluid/potential/GunnsGasFan" numPorts="2" reqPorts="0,1" />
          <mxCell style="verticalLabelPosition=bottom;align=center;html=1;verticalAlign=top;shape=stencil(7VbLbsIwEPyaHINCzKvHKoXeuKCq5yUsYGHsyHYJ/H0NTmisJNRBlVAlpBy8s7FnvGNrHZBEbSHDII5AZZjqgLwFcXwASWHJDBybzNaCL5ENOezRIu8f8/nCIDPgNqW0FDvM6UoXcyjfoqTaZvPqOmQaRK8GPH8kSQXnhp0KrpxMJW/WBsq1I2BuF84Mxx41SosWOo9F1Bva+FTNzrrQLO6g6Xen+fShcfdSkHaimXrQ9D1oSGKQNuNIsoR0t5Hii68axSFjNFNYP165Gzbvu01OCylJ1kLiDTVrypg9vG3FzOB8pmuJMr0XB/xRO3DPQrtJ5XSQqRkwkBsMzThcM9g4G5fFyqSMT26scsSsMq3vVK/UcwzhSFUohYazZU2lHTxAbHSv2MnvYl1jxqRH3Gs66o2f7nRw51owH7nXcvs7NBk+fMP/2J0/1frL1fEy92mOc3X85V5/bm5HBm/pSOZFd7OR1RrvKKj23ZFb39itYXxDUnsPvcitdeALal+fF+Ab);strokeColor=#000000;strokeWidth=1;fontSize=12;fontColor=#000000;fillColor=#FFFFFF;" vertex="1" parent="AM5TrIHkVM9sAFbbRxFB-1">
            <mxGeometry x="-250" y="1360" width="40" height="40" as="geometry" />
          </mxCell>
        </object>
        <object label="&lt;i&gt;cabinAtmo.modelB.&lt;br&gt;mImvDuct.mIf&lt;/i&gt;" About="Fluid Distributed Interface" Ports="0=node" c00.isPairMaster="false" c01.useEnthalpy="false" c02.demandOption="false" c03.capacitorLink="0" i00.malfBlockageFlag="false" i01.malfBlockageValue="0.0" i02.forceDemandMode="false" i03.forceSupplyMode="false" id="4kTiEVnyez8a0h_j9eup-14">
          <gunns type="Link" subtype="core/GunnsFluidDistributedIf" numPorts="1" reqPorts="0" />
          <mxCell style="shape=stencil(rVRbboMwEDyNfyviTQ5QuWn/okpVD7Ahm2IF1sg4j96+jk0kHAgCpX/sjGdn1lojQDUF1iRkhk1NuRPwJqQ8odW4LT0sPVNEUGaxZKwoIh/fm82XR9YXR5ax9J+fqG081jhrDnTWO9fqNRdktYvsOWLL0BPWInsV1/6ZAJUbZp9EG24SpsP73qjZJWHadLX3qMjnSdBLUv221csq1O9zbBYTbBYTbEB55NGooLaYH36sOfJuMFyN11vtETe6MifqxEnHbsuhqW/6UnNHD7P1o/5z7Z9Mf+c+wT5ND8+lX/7v5Y/4h43qLUZAH2wTqL2xNLJm8Q0Prm5PGdD4MwnAHw==);html=1;align=center;verticalLabelPosition=top;verticalAlign=bottom;dashed=0;labelBackgroundColor=none;fillColor=#ffffff;fontSize=12;direction=east;strokeColor=#007FFF;labelPosition=center;" vertex="1" parent="AM5TrIHkVM9sAFbbRxFB-1">
            <mxGeometry x="-590" y="1370" width="120" height="20" as="geometry" />
          </mxCell>
        </object>
        <object label="&lt;i&gt;cabinAtmo.modelB.&lt;br&gt;mVestibule.mIf&lt;/i&gt;" About="Fluid Distributed Interface" Ports="0=node" c00.isPairMaster="false" c01.useEnthalpy="false" c02.demandOption="false" c03.capacitorLink="0" i00.malfBlockageFlag="false" i01.malfBlockageValue="0.0" i02.forceDemandMode="false" i03.forceSupplyMode="false" id="4kTiEVnyez8a0h_j9eup-15">
          <gunns type="Link" subtype="core/GunnsFluidDistributedIf" numPorts="1" reqPorts="0" />
          <mxCell style="shape=stencil(rVRbboMwEDyNfyviTQ5QuWn/okpVD7Ahm2IF1sg4j96+jk0kHAgCpX/sjGdn1lojQDUF1iRkhk1NuRPwJqQ8odW4LT0sPVNEUGaxZKwoIh/fm82XR9YXR5ax9J+fqG081jhrDnTWO9fqNRdktYvsOWLL0BPWInsV1/6ZAJUbZp9EG24SpsP73qjZJWHadLX3qMjnSdBLUv221csq1O9zbBYTbBYTbEB55NGooLaYH36sOfJuMFyN11vtETe6MifqxEnHbsuhqW/6UnNHD7P1o/5z7Z9Mf+c+wT5ND8+lX/7v5Y/4h43qLUZAH2wTqL2xNLJm8Q0Prm5PGdD4MwnAHw==);html=1;align=center;verticalLabelPosition=bottom;verticalAlign=top;dashed=0;labelBackgroundColor=none;fillColor=#ffffff;fontSize=12;direction=east;strokeColor=#007FFF;" vertex="1" parent="AM5TrIHkVM9sAFbbRxFB-1">
            <mxGeometry x="-590" y="1630" width="120" height="20" as="geometry" />
          </mxCell>
        </object>
        <mxCell id="4kTiEVnyez8a0h_j9eup-16" value="" style="endArrow=none;html=1;rounded=1;exitX=0;exitY=0.75;exitDx=0;exitDy=0;entryX=1;entryY=0.75;entryDx=0;entryDy=0;strokeColor=default;edgeStyle=orthogonalEdgeStyle;" edge="1" parent="AM5TrIHkVM9sAFbbRxFB-1" source="4kTiEVnyez8a0h_j9eup-7" target="4kTiEVnyez8a0h_j9eup-8">
          <mxGeometry width="50" height="50" relative="1" as="geometry">
            <mxPoint x="-272" y="1700" as="sourcePoint" />
            <mxPoint x="-390" y="1700" as="targetPoint" />
          </mxGeometry>
        </mxCell>
        <object label="Hatch" About="Hatch" Ports="0=in, 1=out" c00.maxConductivity="0.0" c01.expansionScaleFactor="0.0" c02.thermalLength="0.0" c03.thermalDiameter="0.0" c04.surfaceRoughness="0.0" c05.length0="0.0" c06.length1="0.0" i00.malfBlockageFlag="false" i01.malfBlockageValue="0.0" i02.position="0.0" i03.malfLeakThruFlag="false" i04.malfLeakThruValue="0.0" i05.wallTemperature="0.0" id="4kTiEVnyez8a0h_j9eup-17">
          <gunns type="Link" subtype="aspects/fluid/conductor/GunnsFluidHatch" numPorts="2" reqPorts="0,1" />
          <mxCell style="verticalLabelPosition=bottom;align=center;fillColor=#ffffff;html=1;verticalAlign=top;strokeColor=#000000;strokeWidth=1;shape=stencil(pVXdboMgGH0abxcFa3q7uK276s3SB2CWTjIEA7R2e/ohYCYqpobEC79z/Djn8GcCS1mjFicgRbLFlUrgSwLADQmCPqmGgWZqC+apLRlqsEUOp+PxQyPvSFW1JaUS/Bt35KxcF2E1FkRZtrNYYUaCr0n6rMH+gWXFGdP6hDPpMSNej40IU54FwuzIrRZpsMLCws7q3at+XPW0M/XbFh1+VQ8IZQ8IwVIjobSwvHCBvwS/svOiPcOIfqFm69L55WBpEt5WSFSS/LpsDlyejwuh1C5q6AtMKWkl/jeUFZ6hoXSG+veRoQysiK8Lt6jfZDNioBt+w6E9sBJ5aKeEjdqzzf2+/C5Sv4jUz/xZD0/6sjzI/UXLN8rn+yh5WMTJT9LDfVx8UMTF36w/yb+ib26XwMEInSfTM7t3DGp/Dgb4Aw==);fontSize=12;fontColor=#000000;" vertex="1" parent="AM5TrIHkVM9sAFbbRxFB-1">
            <mxGeometry x="-360" y="1670" width="60" height="40" as="geometry" />
          </mxCell>
        </object>
        <mxCell id="4kTiEVnyez8a0h_j9eup-18" value="Cabin Volume&amp;nbsp;&lt;br&gt;(&lt;i&gt;cabinAtmo.modelA.mCabin&lt;/i&gt;)" style="rounded=1;whiteSpace=wrap;html=1;fillColor=#dae8fc;strokeColor=#6c8ebf;flipH=0;" vertex="1" parent="AM5TrIHkVM9sAFbbRxFB-1">
          <mxGeometry x="230" y="1540" width="240" height="200" as="geometry" />
        </mxCell>
        <mxCell id="4kTiEVnyez8a0h_j9eup-19" value="Vestibule&lt;br&gt;Volume&lt;br&gt;(&lt;i&gt;cabinAtmo.&lt;br&gt;modelA.&lt;br&gt;mVestibule&lt;/i&gt;)" style="rounded=1;whiteSpace=wrap;html=1;fillColor=#dae8fc;strokeColor=#6c8ebf;flipH=0;" vertex="1" parent="AM5TrIHkVM9sAFbbRxFB-1">
          <mxGeometry x="590" y="1540" width="80" height="200" as="geometry" />
        </mxCell>
        <mxCell id="4kTiEVnyez8a0h_j9eup-20" value="" style="endArrow=none;html=1;rounded=1;exitX=1;exitY=0.25;exitDx=0;exitDy=0;entryX=0;entryY=0.25;entryDx=0;entryDy=0;strokeColor=default;edgeStyle=orthogonalEdgeStyle;" edge="1" parent="AM5TrIHkVM9sAFbbRxFB-1" source="4kTiEVnyez8a0h_j9eup-18" target="4kTiEVnyez8a0h_j9eup-19">
          <mxGeometry width="50" height="50" relative="1" as="geometry">
            <mxPoint x="580" y="1390" as="sourcePoint" />
            <mxPoint x="340" y="1550" as="targetPoint" />
          </mxGeometry>
        </mxCell>
        <mxCell id="4kTiEVnyez8a0h_j9eup-21" value="IMV Duct&lt;br&gt;Volume&lt;br&gt;(&lt;i&gt;cabinAtmo.&lt;br&gt;modelA.&lt;br&gt;mImvDuct&lt;/i&gt;)" style="rounded=1;whiteSpace=wrap;html=1;fillColor=#dae8fc;strokeColor=#6c8ebf;flipH=0;" vertex="1" parent="AM5TrIHkVM9sAFbbRxFB-1">
          <mxGeometry x="590" y="1340" width="80" height="80" as="geometry" />
        </mxCell>
        <mxCell id="4kTiEVnyez8a0h_j9eup-22" value="" style="endArrow=none;html=1;rounded=1;exitX=0;exitY=0.5;exitDx=0;exitDy=0;entryX=0.5;entryY=0;entryDx=0;entryDy=0;strokeColor=default;edgeStyle=orthogonalEdgeStyle;" edge="1" parent="AM5TrIHkVM9sAFbbRxFB-1" source="4kTiEVnyez8a0h_j9eup-21" target="4kTiEVnyez8a0h_j9eup-18">
          <mxGeometry width="50" height="50" relative="1" as="geometry">
            <mxPoint x="420" y="1280" as="sourcePoint" />
            <mxPoint x="370" y="1230" as="targetPoint" />
          </mxGeometry>
        </mxCell>
        <object label="MPEV" About="Valve" Ports="0=in, 1=out" c00.maxConductivity="0.0" c01.expansionScaleFactor="0.0" c02.thermalLength="0.0" c03.thermalDiameter="0.0" c04.surfaceRoughness="0.0" i00.malfBlockageFlag="false" i01.malfBlockageValue="0.0" i02.position="0.0" i03.malfLeakThruFlag="false" i04.malfLeakThruValue="0.0" i05.wallTemperature="0.0" id="4kTiEVnyez8a0h_j9eup-23">
          <gunns type="Link" subtype="aspects/fluid/conductor/GunnsFluidValve" numPorts="2" reqPorts="0,1" />
          <mxCell style="verticalLabelPosition=bottom;align=center;fillColor=#FFFFFF;html=1;verticalAlign=top;strokeColor=#000000;strokeWidth=1;shape=stencil(pVTLboMwEPwaXyOCUyXXiD5uuVTN3SFuWdWske08+vddvCSKm1CBkLjsjGdn1iwIWfhKNVrkmfKNLoOQzyLPj8qB2hmCc2IqBhcZl6hqzcjbx2bzTshWmWN31gdnv/UJ9qFTAVbaQWD2xNgqdpIvIlsT2D6yKC0i+YNFnzA3PPVWgCGJAMidGzKpddCO4S7qOal+umr2FOvXMT72EAYYzQcYyYKQvmll8Wmd/nL2gPuH8RrVXuwdcaFr276Ia5w/g/eOfZEbwBv5MpUvJurHyuej7Utjvf7/SHpBqcPUhAP0qf1yov9qsD4uXc/u0M6BMfzhPlzWu5WMKP83IvAL);fontSize=12;fontColor=#000000;flipH=0;" vertex="1" parent="AM5TrIHkVM9sAFbbRxFB-1">
            <mxGeometry x="490" y="1570" width="80" height="40" as="geometry" />
          </mxCell>
        </object>
        <object label="IMV valve" About="Valve" Ports="0=in, 1=out" c00.maxConductivity="0.0" c01.expansionScaleFactor="0.0" c02.thermalLength="0.0" c03.thermalDiameter="0.0" c04.surfaceRoughness="0.0" i00.malfBlockageFlag="false" i01.malfBlockageValue="0.0" i02.position="0.0" i03.malfLeakThruFlag="false" i04.malfLeakThruValue="0.0" i05.wallTemperature="0.0" id="4kTiEVnyez8a0h_j9eup-24">
          <gunns type="Link" subtype="aspects/fluid/conductor/GunnsFluidValve" numPorts="2" reqPorts="0,1" />
          <mxCell style="verticalLabelPosition=bottom;align=center;fillColor=#FFFFFF;html=1;verticalAlign=top;strokeColor=#000000;strokeWidth=1;shape=stencil(pVTLboMwEPwaXyOCUyXXiD5uuVTN3SFuWdWske08+vddvCSKm1CBkLjsjGdn1iwIWfhKNVrkmfKNLoOQzyLPj8qB2hmCc2IqBhcZl6hqzcjbx2bzTshWmWN31gdnv/UJ9qFTAVbaQWD2xNgqdpIvIlsT2D6yKC0i+YNFnzA3PPVWgCGJAMidGzKpddCO4S7qOal+umr2FOvXMT72EAYYzQcYyYKQvmll8Wmd/nL2gPuH8RrVXuwdcaFr276Ia5w/g/eOfZEbwBv5MpUvJurHyuej7Utjvf7/SHpBqcPUhAP0qf1yov9qsD4uXc/u0M6BMfzhPlzWu5WMKP83IvAL);fontSize=12;fontColor=#000000;flipH=0;" vertex="1" parent="AM5TrIHkVM9sAFbbRxFB-1">
            <mxGeometry x="490" y="1360" width="80" height="40" as="geometry" />
          </mxCell>
        </object>
        <object label="IMV Fan" About="Gas Fan" Ports="0=in, 1=out" c00.maxConductivity="0.0" c01.expansionScaleFactor="0.0" c02.referenceDensity="0.0" c03.referenceSpeed="0.0" c04.referenceCoeff0="0.0" c05.referenceCoeff1="0.0" c06.referenceCoeff2="0.0" c07.referenceCoeff3="0.0" c08.referenceCoeff4="0.0" c09.referenceCoeff5="0.0" c10.bestEfficiency="0.0" c11.referenceQBep="0.0" c12.filterGain="0.5" c13.driveRatio="1.0" c14.thermalLength="0.0" c15.thermalDiameter="0.0" c16.surfaceRoughness="0.0" c17.checkValveActive="false" i00.malfBlockageFlag="false" i01.malfBlockageValue="0.0" i02.sourcePressure="0.0" i03.motorSpeed="0.0" i04.wallTemperature="0.0" id="4kTiEVnyez8a0h_j9eup-25">
          <gunns type="Link" subtype="aspects/fluid/potential/GunnsGasFan" numPorts="2" reqPorts="0,1" />
          <mxCell style="verticalLabelPosition=bottom;align=center;html=1;verticalAlign=top;shape=stencil(7VbLbsIwEPyaHINCzKvHKoXeuKCq5yUsYGHsyHYJ/H0NTmisJNRBlVAlpBy8s7FnvGNrHZBEbSHDII5AZZjqgLwFcXwASWHJDBybzNaCL5ENOezRIu8f8/nCIDPgNqW0FDvM6UoXcyjfoqTaZvPqOmQaRK8GPH8kSQXnhp0KrpxMJW/WBsq1I2BuF84Mxx41SosWOo9F1Bva+FTNzrrQLO6g6Xen+fShcfdSkHaimXrQ9D1oSGKQNuNIsoR0t5Hii68axSFjNFNYP165Gzbvu01OCylJ1kLiDTVrypg9vG3FzOB8pmuJMr0XB/xRO3DPQrtJ5XSQqRkwkBsMzThcM9g4G5fFyqSMT26scsSsMq3vVK/UcwzhSFUohYazZU2lHTxAbHSv2MnvYl1jxqRH3Gs66o2f7nRw51owH7nXcvs7NBk+fMP/2J0/1frL1fEy92mOc3X85V5/bm5HBm/pSOZFd7OR1RrvKKj23ZFb39itYXxDUnsPvcitdeALal+fF+Ab);strokeColor=#000000;strokeWidth=1;fontSize=12;fontColor=#000000;fillColor=#FFFFFF;flipH=0;" vertex="1" parent="AM5TrIHkVM9sAFbbRxFB-1">
            <mxGeometry x="410" y="1360" width="40" height="40" as="geometry" />
          </mxCell>
        </object>
        <object label="&lt;i&gt;cabinAtmo.modelA.&lt;br&gt;mImvDuct.mIf&lt;/i&gt;" About="Fluid Distributed Interface" Ports="0=node" c00.isPairMaster="false" c01.useEnthalpy="false" c02.demandOption="false" c03.capacitorLink="0" i00.malfBlockageFlag="false" i01.malfBlockageValue="0.0" i02.forceDemandMode="false" i03.forceSupplyMode="false" id="4kTiEVnyez8a0h_j9eup-26">
          <gunns type="Link" subtype="core/GunnsFluidDistributedIf" numPorts="1" reqPorts="0" />
          <mxCell style="shape=stencil(rVRbboMwEDyNfyviTQ5QuWn/okpVD7Ahm2IF1sg4j96+jk0kHAgCpX/sjGdn1lojQDUF1iRkhk1NuRPwJqQ8odW4LT0sPVNEUGaxZKwoIh/fm82XR9YXR5ax9J+fqG081jhrDnTWO9fqNRdktYvsOWLL0BPWInsV1/6ZAJUbZp9EG24SpsP73qjZJWHadLX3qMjnSdBLUv221csq1O9zbBYTbBYTbEB55NGooLaYH36sOfJuMFyN11vtETe6MifqxEnHbsuhqW/6UnNHD7P1o/5z7Z9Mf+c+wT5ND8+lX/7v5Y/4h43qLUZAH2wTqL2xNLJm8Q0Prm5PGdD4MwnAHw==);html=1;align=center;verticalLabelPosition=top;verticalAlign=bottom;dashed=0;labelBackgroundColor=none;fillColor=#ffffff;fontSize=12;direction=east;strokeColor=#007FFF;labelPosition=center;flipH=0;" vertex="1" parent="AM5TrIHkVM9sAFbbRxFB-1">
            <mxGeometry x="670" y="1370" width="120" height="20" as="geometry" />
          </mxCell>
        </object>
        <object label="&lt;i&gt;cabinAtmo.modelA.&lt;br&gt;mVestibule.mIf&lt;/i&gt;" About="Fluid Distributed Interface" Ports="0=node" c00.isPairMaster="false" c01.useEnthalpy="false" c02.demandOption="false" c03.capacitorLink="0" i00.malfBlockageFlag="false" i01.malfBlockageValue="0.0" i02.forceDemandMode="false" i03.forceSupplyMode="false" id="4kTiEVnyez8a0h_j9eup-27">
          <gunns type="Link" subtype="core/GunnsFluidDistributedIf" numPorts="1" reqPorts="0" />
          <mxCell style="shape=stencil(rVRbboMwEDyNfyviTQ5QuWn/okpVD7Ahm2IF1sg4j96+jk0kHAgCpX/sjGdn1lojQDUF1iRkhk1NuRPwJqQ8odW4LT0sPVNEUGaxZKwoIh/fm82XR9YXR5ax9J+fqG081jhrDnTWO9fqNRdktYvsOWLL0BPWInsV1/6ZAJUbZp9EG24SpsP73qjZJWHadLX3qMjnSdBLUv221csq1O9zbBYTbBYTbEB55NGooLaYH36sOfJuMFyN11vtETe6MifqxEnHbsuhqW/6UnNHD7P1o/5z7Z9Mf+c+wT5ND8+lX/7v5Y/4h43qLUZAH2wTqL2xNLJm8Q0Prm5PGdD4MwnAHw==);html=1;align=center;verticalLabelPosition=bottom;verticalAlign=top;dashed=0;labelBackgroundColor=none;fillColor=#ffffff;fontSize=12;direction=east;strokeColor=#007FFF;flipH=0;" vertex="1" parent="AM5TrIHkVM9sAFbbRxFB-1">
            <mxGeometry x="670" y="1630" width="120" height="20" as="geometry" />
          </mxCell>
        </object>
        <mxCell id="4kTiEVnyez8a0h_j9eup-28" value="" style="endArrow=none;html=1;rounded=1;exitX=0.5;exitY=1;exitDx=0;exitDy=0;entryX=0.5;entryY=0;entryDx=0;entryDy=0;strokeColor=default;edgeStyle=orthogonalEdgeStyle;" edge="1" parent="AM5TrIHkVM9sAFbbRxFB-1" source="4kTiEVnyez8a0h_j9eup-21" target="4kTiEVnyez8a0h_j9eup-19">
          <mxGeometry width="50" height="50" relative="1" as="geometry">
            <mxPoint x="452" y="1600" as="sourcePoint" />
            <mxPoint x="570" y="1600" as="targetPoint" />
          </mxGeometry>
        </mxCell>
        <mxCell id="4kTiEVnyez8a0h_j9eup-29" value="" style="endArrow=none;html=1;rounded=1;exitX=1;exitY=0.75;exitDx=0;exitDy=0;entryX=0;entryY=0.75;entryDx=0;entryDy=0;strokeColor=default;edgeStyle=orthogonalEdgeStyle;" edge="1" parent="AM5TrIHkVM9sAFbbRxFB-1" source="4kTiEVnyez8a0h_j9eup-18" target="4kTiEVnyez8a0h_j9eup-19">
          <mxGeometry width="50" height="50" relative="1" as="geometry">
            <mxPoint x="472" y="1700" as="sourcePoint" />
            <mxPoint x="590" y="1700" as="targetPoint" />
          </mxGeometry>
        </mxCell>
        <object label="Hatch" About="Hatch" Ports="0=in, 1=out" c00.maxConductivity="0.0" c01.expansionScaleFactor="0.0" c02.thermalLength="0.0" c03.thermalDiameter="0.0" c04.surfaceRoughness="0.0" c05.length0="0.0" c06.length1="0.0" i00.malfBlockageFlag="false" i01.malfBlockageValue="0.0" i02.position="0.0" i03.malfLeakThruFlag="false" i04.malfLeakThruValue="0.0" i05.wallTemperature="0.0" id="4kTiEVnyez8a0h_j9eup-30">
          <gunns type="Link" subtype="aspects/fluid/conductor/GunnsFluidHatch" numPorts="2" reqPorts="0,1" />
          <mxCell style="verticalLabelPosition=bottom;align=center;fillColor=#ffffff;html=1;verticalAlign=top;strokeColor=#000000;strokeWidth=1;shape=stencil(pVXdboMgGH0abxcFa3q7uK276s3SB2CWTjIEA7R2e/ohYCYqpobEC79z/Djn8GcCS1mjFicgRbLFlUrgSwLADQmCPqmGgWZqC+apLRlqsEUOp+PxQyPvSFW1JaUS/Bt35KxcF2E1FkRZtrNYYUaCr0n6rMH+gWXFGdP6hDPpMSNej40IU54FwuzIrRZpsMLCws7q3at+XPW0M/XbFh1+VQ8IZQ8IwVIjobSwvHCBvwS/svOiPcOIfqFm69L55WBpEt5WSFSS/LpsDlyejwuh1C5q6AtMKWkl/jeUFZ6hoXSG+veRoQysiK8Lt6jfZDNioBt+w6E9sBJ5aKeEjdqzzf2+/C5Sv4jUz/xZD0/6sjzI/UXLN8rn+yh5WMTJT9LDfVx8UMTF36w/yb+ib26XwMEInSfTM7t3DGp/Dgb4Aw==);fontSize=12;fontColor=#000000;flipH=0;" vertex="1" parent="AM5TrIHkVM9sAFbbRxFB-1">
            <mxGeometry x="500" y="1670" width="60" height="40" as="geometry" />
          </mxCell>
        </object>
        <mxCell id="4kTiEVnyez8a0h_j9eup-31" value="Conservation Checks&lt;br&gt;(&lt;i&gt;cabinAtmo.conservation&lt;/i&gt;)&lt;br&gt;&lt;br&gt;% errors from starting reference:&lt;br&gt;Total energy: &lt;i&gt;cabinAtmo.error.energy&lt;/i&gt;&lt;br&gt;Total moles: &lt;i&gt;cabinAtmo.error.moles&lt;/i&gt;&lt;br&gt;Moles N2: &lt;i&gt;cabinAtmo.error.molesN2&lt;/i&gt;&lt;br&gt;Moles O2: &lt;i&gt;cabinAtmo.error.molesO2&lt;/i&gt;&lt;br&gt;Moles H2O: &lt;i&gt;cabinAtmo.error.molesH2O&lt;/i&gt;&lt;br&gt;Moles CO2: &lt;i&gt;cabinAtmo.error.molesCO2&lt;/i&gt;" style="rounded=1;whiteSpace=wrap;html=1;dashed=1;arcSize=8;verticalAlign=top;fillColor=#e1d5e7;strokeColor=#9673a6;" vertex="1" parent="AM5TrIHkVM9sAFbbRxFB-1">
          <mxGeometry x="270" y="990" width="260" height="160" as="geometry" />
        </mxCell>
        <mxCell id="4kTiEVnyez8a0h_j9eup-32" value="" style="endArrow=classic;html=1;rounded=0;entryX=0.75;entryY=1;entryDx=0;entryDy=0;exitX=0.5;exitY=0;exitDx=0;exitDy=0;strokeColor=#B3B3B3;" edge="1" parent="AM5TrIHkVM9sAFbbRxFB-1" source="4kTiEVnyez8a0h_j9eup-3" target="4kTiEVnyez8a0h_j9eup-31">
          <mxGeometry width="50" height="50" relative="1" as="geometry">
            <mxPoint x="540" y="1640" as="sourcePoint" />
            <mxPoint x="590" y="1590" as="targetPoint" />
          </mxGeometry>
        </mxCell>
        <mxCell id="4kTiEVnyez8a0h_j9eup-33" value="&lt;font color=&quot;#b3b3b3&quot;&gt;Model A&lt;br&gt;total moles&lt;br&gt;&amp;amp; energy&lt;/font&gt;" style="edgeLabel;html=1;align=center;verticalAlign=middle;resizable=0;points=[];" vertex="1" connectable="0" parent="4kTiEVnyez8a0h_j9eup-32">
          <mxGeometry x="-0.0611" relative="1" as="geometry">
            <mxPoint y="1" as="offset" />
          </mxGeometry>
        </mxCell>
        <object label="Grill Valve" About="Valve" Ports="0=in, 1=out" c00.maxConductivity="0.0" c01.expansionScaleFactor="0.0" c02.thermalLength="0.0" c03.thermalDiameter="0.0" c04.surfaceRoughness="0.0" i00.malfBlockageFlag="false" i01.malfBlockageValue="0.0" i02.position="0.0" i03.malfLeakThruFlag="false" i04.malfLeakThruValue="0.0" i05.wallTemperature="0.0" id="4kTiEVnyez8a0h_j9eup-36">
          <gunns type="Link" subtype="aspects/fluid/conductor/GunnsFluidValve" numPorts="2" reqPorts="0,1" />
          <mxCell style="verticalLabelPosition=middle;align=left;fillColor=#FFFFFF;html=1;verticalAlign=middle;strokeColor=#000000;strokeWidth=1;shape=stencil(pVTLboMwEPwaXyOCUyXXiD5uuVTN3SFuWdWske08+vddvCSKm1CBkLjsjGdn1iwIWfhKNVrkmfKNLoOQzyLPj8qB2hmCc2IqBhcZl6hqzcjbx2bzTshWmWN31gdnv/UJ9qFTAVbaQWD2xNgqdpIvIlsT2D6yKC0i+YNFnzA3PPVWgCGJAMidGzKpddCO4S7qOal+umr2FOvXMT72EAYYzQcYyYKQvmll8Wmd/nL2gPuH8RrVXuwdcaFr276Ia5w/g/eOfZEbwBv5MpUvJurHyuej7Utjvf7/SHpBqcPUhAP0qf1yov9qsD4uXc/u0M6BMfzhPlzWu5WMKP83IvAL);fontSize=12;fontColor=#000000;direction=south;labelPosition=right;flipH=0;" vertex="1" parent="AM5TrIHkVM9sAFbbRxFB-1">
            <mxGeometry x="610" y="1440" width="40" height="80" as="geometry" />
          </mxCell>
        </object>
        <mxCell id="4kTiEVnyez8a0h_j9eup-37" value="" style="endArrow=classic;html=1;rounded=0;entryX=0.5;entryY=1;entryDx=0;entryDy=0;exitX=0.5;exitY=0;exitDx=0;exitDy=0;strokeColor=#FF0000;" edge="1" parent="AM5TrIHkVM9sAFbbRxFB-1" source="4kTiEVnyez8a0h_j9eup-2" target="AM5TrIHkVM9sAFbbRxFB-40">
          <mxGeometry width="50" height="50" relative="1" as="geometry">
            <mxPoint x="283" y="660" as="sourcePoint" />
            <mxPoint x="-195" y="740" as="targetPoint" />
          </mxGeometry>
        </mxCell>
        <mxCell id="4kTiEVnyez8a0h_j9eup-38" value="&lt;font color=&quot;#b3b3b3&quot;&gt;Model B&lt;br&gt;total moles&lt;br&gt;&amp;amp; energy&lt;/font&gt;" style="edgeLabel;html=1;align=center;verticalAlign=middle;resizable=0;points=[];" vertex="1" connectable="0" parent="4kTiEVnyez8a0h_j9eup-37">
          <mxGeometry x="-0.0611" relative="1" as="geometry">
            <mxPoint y="1" as="offset" />
          </mxGeometry>
        </mxCell>
        <mxCell id="AM5TrIHkVM9sAFbbRxFB-43" value="" style="endArrow=classic;html=1;rounded=0;entryX=0.5;entryY=0;entryDx=0;entryDy=0;exitX=0.5;exitY=1;exitDx=0;exitDy=0;strokeColor=#FF0000;" edge="1" parent="AM5TrIHkVM9sAFbbRxFB-1" source="AM5TrIHkVM9sAFbbRxFB-2" target="4kTiEVnyez8a0h_j9eup-31">
          <mxGeometry width="50" height="50" relative="1" as="geometry">
            <mxPoint x="-345" y="660" as="sourcePoint" />
            <mxPoint x="-225" y="770" as="targetPoint" />
          </mxGeometry>
        </mxCell>
        <mxCell id="AM5TrIHkVM9sAFbbRxFB-44" value="&lt;font color=&quot;#b3b3b3&quot;&gt;Model B&lt;br&gt;total moles&lt;br&gt;&amp;amp; energy&lt;/font&gt;" style="edgeLabel;html=1;align=center;verticalAlign=middle;resizable=0;points=[];" vertex="1" connectable="0" parent="AM5TrIHkVM9sAFbbRxFB-43">
          <mxGeometry x="-0.0611" relative="1" as="geometry">
            <mxPoint y="1" as="offset" />
          </mxGeometry>
        </mxCell>
        <mxCell id="D7kp9k7LArADHpQxPEDN-1" value="ConservationData_1_to_2" style="text;html=1;align=center;verticalAlign=middle;resizable=0;points=[];autosize=1;strokeColor=none;fillColor=none;fontColor=#FF0000;" vertex="1" parent="AM5TrIHkVM9sAFbbRxFB-1">
          <mxGeometry x="330" y="925" width="160" height="30" as="geometry" />
        </mxCell>
        <mxCell id="D7kp9k7LArADHpQxPEDN-2" value="ConservationData_2_to_1" style="text;html=1;align=center;verticalAlign=middle;resizable=0;points=[];autosize=1;strokeColor=none;fillColor=none;fontColor=#FF0000;" vertex="1" parent="AM5TrIHkVM9sAFbbRxFB-1">
          <mxGeometry x="-340" y="925" width="160" height="30" as="geometry" />
        </mxCell>
        <mxCell id="D7kp9k7LArADHpQxPEDN-3" value="" style="curved=1;endArrow=classic;html=1;rounded=0;strokeColor=#FF0000;startArrow=classic;startFill=1;entryX=1;entryY=0.5;entryDx=0;entryDy=0;entryPerimeter=0;exitX=0;exitY=0.5;exitDx=0;exitDy=0;exitPerimeter=0;" edge="1" parent="AM5TrIHkVM9sAFbbRxFB-1" source="4kTiEVnyez8a0h_j9eup-14" target="AM5TrIHkVM9sAFbbRxFB-33">
          <mxGeometry width="50" height="50" relative="1" as="geometry">
            <mxPoint x="-740" y="620" as="sourcePoint" />
            <mxPoint x="-690" y="570" as="targetPoint" />
            <Array as="points">
              <mxPoint x="-670" y="1380" />
              <mxPoint x="-590" y="1120" />
              <mxPoint x="-30" y="1010" />
              <mxPoint x="-20" y="280" />
            </Array>
          </mxGeometry>
        </mxCell>
        <mxCell id="D7kp9k7LArADHpQxPEDN-4" value="FluidDistIf_IMV_1A_to_2B" style="text;html=1;align=center;verticalAlign=middle;resizable=0;points=[];autosize=1;strokeColor=none;fillColor=none;fontColor=#FF0000;" vertex="1" parent="AM5TrIHkVM9sAFbbRxFB-1">
          <mxGeometry x="-670" y="1300" width="160" height="30" as="geometry" />
        </mxCell>
        <mxCell id="D7kp9k7LArADHpQxPEDN-5" value="FluidDistIf_IMV_2B_to_1A" style="text;html=1;align=center;verticalAlign=middle;resizable=0;points=[];autosize=1;strokeColor=none;fillColor=none;fontColor=#FF0000;" vertex="1" parent="AM5TrIHkVM9sAFbbRxFB-1">
          <mxGeometry x="-120" y="300" width="160" height="30" as="geometry" />
        </mxCell>
        <mxCell id="D7kp9k7LArADHpQxPEDN-6" value="" style="curved=1;endArrow=classic;html=1;rounded=0;strokeColor=#FF0000;startArrow=classic;startFill=1;entryX=1;entryY=0.5;entryDx=0;entryDy=0;entryPerimeter=0;exitX=0;exitY=0.5;exitDx=0;exitDy=0;exitPerimeter=0;" edge="1" parent="AM5TrIHkVM9sAFbbRxFB-1">
          <mxGeometry width="50" height="50" relative="1" as="geometry">
            <mxPoint x="-590" y="1640" as="sourcePoint" />
            <mxPoint x="-70" y="540" as="targetPoint" />
            <Array as="points">
              <mxPoint x="-670" y="1630" />
              <mxPoint x="-680" y="1100" />
              <mxPoint x="-130" y="1020" />
              <mxPoint x="-10" y="570" />
            </Array>
          </mxGeometry>
        </mxCell>
        <mxCell id="D7kp9k7LArADHpQxPEDN-7" value="FluidDistIf_Vestibule_1A_to_2B" style="text;html=1;align=center;verticalAlign=middle;resizable=0;points=[];autosize=1;strokeColor=none;fillColor=none;fontColor=#FF0000;" vertex="1" parent="AM5TrIHkVM9sAFbbRxFB-1">
          <mxGeometry x="-705" y="1540" width="190" height="30" as="geometry" />
        </mxCell>
        <mxCell id="D7kp9k7LArADHpQxPEDN-8" value="FluidDistIf_Vestibule_2B_to_1A" style="text;html=1;align=center;verticalAlign=middle;resizable=0;points=[];autosize=1;strokeColor=none;fillColor=none;fontColor=#FF0000;" vertex="1" parent="AM5TrIHkVM9sAFbbRxFB-1">
          <mxGeometry x="-215" y="660" width="190" height="30" as="geometry" />
        </mxCell>
        <mxCell id="D7kp9k7LArADHpQxPEDN-9" value="" style="curved=1;endArrow=classic;html=1;rounded=0;strokeColor=#FF0000;startArrow=classic;startFill=1;entryX=1;entryY=0.5;entryDx=0;entryDy=0;entryPerimeter=0;exitX=1;exitY=0.5;exitDx=0;exitDy=0;exitPerimeter=0;" edge="1" parent="AM5TrIHkVM9sAFbbRxFB-1" source="4kTiEVnyez8a0h_j9eup-27">
          <mxGeometry width="50" height="50" relative="1" as="geometry">
            <mxPoint x="600" y="1640" as="sourcePoint" />
            <mxPoint x="80" y="540" as="targetPoint" />
            <Array as="points">
              <mxPoint x="920" y="1620" />
              <mxPoint x="820" y="920" />
              <mxPoint x="110" y="800" />
              <mxPoint x="20" y="570" />
            </Array>
          </mxGeometry>
        </mxCell>
        <mxCell id="D7kp9k7LArADHpQxPEDN-10" value="FluidDistIf_Vestibule_2A_to_1B" style="text;html=1;align=center;verticalAlign=middle;resizable=0;points=[];autosize=1;strokeColor=none;fillColor=none;fontColor=#FF0000;" vertex="1" parent="AM5TrIHkVM9sAFbbRxFB-1">
          <mxGeometry x="35" y="660" width="190" height="30" as="geometry" />
        </mxCell>
        <mxCell id="D7kp9k7LArADHpQxPEDN-11" value="FluidDistIf_Vestibule_1B_to_2A" style="text;html=1;align=center;verticalAlign=middle;resizable=0;points=[];autosize=1;strokeColor=none;fillColor=none;fontColor=#FF0000;" vertex="1" parent="AM5TrIHkVM9sAFbbRxFB-1">
          <mxGeometry x="700" y="1575" width="190" height="30" as="geometry" />
        </mxCell>
        <mxCell id="D7kp9k7LArADHpQxPEDN-12" value="" style="curved=1;endArrow=classic;html=1;rounded=0;strokeColor=#FF0000;startArrow=classic;startFill=1;entryX=1;entryY=0.5;entryDx=0;entryDy=0;entryPerimeter=0;exitX=1;exitY=0.5;exitDx=0;exitDy=0;exitPerimeter=0;" edge="1" parent="AM5TrIHkVM9sAFbbRxFB-1" source="4kTiEVnyez8a0h_j9eup-26">
          <mxGeometry width="50" height="50" relative="1" as="geometry">
            <mxPoint x="600" y="1380" as="sourcePoint" />
            <mxPoint x="80" y="280" as="targetPoint" />
            <Array as="points">
              <mxPoint x="900" y="1340" />
              <mxPoint x="680" y="880" />
              <mxPoint x="10" y="840" />
              <mxPoint x="30" y="280" />
            </Array>
          </mxGeometry>
        </mxCell>
        <mxCell id="D7kp9k7LArADHpQxPEDN-13" value="FluidDistIf_IMV_2A_to_1B" style="text;html=1;align=center;verticalAlign=middle;resizable=0;points=[];autosize=1;strokeColor=none;fillColor=none;fontColor=#FF0000;" vertex="1" parent="AM5TrIHkVM9sAFbbRxFB-1">
          <mxGeometry y="330" width="160" height="30" as="geometry" />
        </mxCell>
        <mxCell id="D7kp9k7LArADHpQxPEDN-14" value="FluidDistIf_IMV_1B_to_2A" style="text;html=1;align=center;verticalAlign=middle;resizable=0;points=[];autosize=1;strokeColor=none;fillColor=none;fontColor=#FF0000;" vertex="1" parent="AM5TrIHkVM9sAFbbRxFB-1">
          <mxGeometry x="715" y="1315" width="160" height="30" as="geometry" />
        </mxCell>
      </root>
    </mxGraphModel>
  </diagram>
</mxfile>
